<svg xmlns="http://www.w3.org/2000/svg" xmlns:xlink="http://www.w3.org/1999/xlink" width="320" height="61.026" viewBox="0 0 320 61.026">
  <defs>
    <clipPath id="clip-path">
      <rect id="Rectangle_25526" data-name="Rectangle 25526" width="320" height="61.026" fill="#fff"/>
    </clipPath>
  </defs>
  <g id="_1" data-name="1" clip-path="url(#clip-path)">
    <path id="Path_34264" data-name="Path 34264" d="M205.8,28.109a7.533,7.533,0,0,0-7.537-7.706,7.433,7.433,0,0,0-7.447,7.706,7.48,7.48,0,0,0,7.447,7.792A7.58,7.58,0,0,0,205.8,28.109Zm-14.77,9.633v14.47h-5.736V15.651h5.736V18.99a10.019,10.019,0,0,1,8.136-3.853c6.291,0,12.327,4.752,12.327,13.057,0,8.22-6.251,13.015-12.287,13.015A10.209,10.209,0,0,1,191.03,37.742Zm-91.4-22.6a13.036,13.036,0,0,0,0,26.072,12.637,12.637,0,0,0,12.03-7.877l-5.18-2.226a7.176,7.176,0,0,1-6.764,4.666,7.428,7.428,0,0,1-7.449-7.577,7.4,7.4,0,0,1,7.406-7.62,7.136,7.136,0,0,1,6.721,4.5l5.18-2.184A12.708,12.708,0,0,0,99.632,15.138ZM42.183,35.344V27.338h4.538c4.324,0,5.608,1.413,5.608,3.981s-1.8,4.024-5.351,4.024Zm0-13.442V14.8h4.024c3.6,0,5.009,1.028,5.009,3.382,0,2.226-1.285,3.724-5.009,3.724ZM46.207,9.444H36.361V40.7H46.978c6.893,0,11.217-3.083,11.217-9.247a7.361,7.361,0,0,0-4.538-7.192,6.622,6.622,0,0,0,3.425-6.079C57.081,12.4,53.185,9.444,46.207,9.444Zm20.805,6.208H61.19V40.7h5.822Zm.728-6.122a3.639,3.639,0,0,0-7.278,0,3.32,3.32,0,0,0,3.639,3.6A3.361,3.361,0,0,0,67.74,9.529Zm2.14,6.122h4.281v-3.81L79.983,7.86v7.792h5.094v5.18H79.983v9.375c0,4.367.642,5.052,5.094,5.052V40.7h-.813c-7.749,0-10.1-2.483-10.1-10.446V20.831H69.88ZM133.5,28.195a7.286,7.286,0,1,0-14.556,0,7.284,7.284,0,1,0,14.556,0Zm-20.25,0a12.972,12.972,0,1,1,12.972,13.015A12.9,12.9,0,0,1,113.246,28.195ZM147.88,15.651h-5.737V40.7h5.778V26.825c0-4.452,2.4-6.678,5.652-6.678,3.468,0,5.266,2.183,5.266,5.78V40.7h5.866v-14c0-4.409,2.4-6.55,5.521-6.55,3.6,0,5.437,2.312,5.437,5.951V40.7h5.908V25.626c0-6.55-3.381-10.489-10.189-10.489a9.607,9.607,0,0,0-8.219,4.324c-1.5-2.74-4.2-4.324-8.134-4.324a8.71,8.71,0,0,0-7.148,3.425ZM226.99,20.4a7.469,7.469,0,0,1,7.491,7.706,7.539,7.539,0,1,1-15.07,0A7.541,7.541,0,0,1,226.99,20.4Zm-.858-5.266c-6.333,0-12.413,4.752-12.413,13.057,0,8.22,6.293,13.015,12.329,13.015a10.255,10.255,0,0,0,8.134-3.767V40.7h5.78V15.651h-5.78v3A10.417,10.417,0,0,0,226.132,15.138Zm17.764.514h5.738v3.724q1.734-3.724,6.421-3.724a8.825,8.825,0,0,1,4.411,1.07l-2.184,5.48a5.779,5.779,0,0,0-3.469-.985c-3.379,0-5.136,1.8-5.136,6.122V40.7H243.9Zm37.247,9.718H266.93a7.368,7.368,0,0,1,7.192-5.137C277.718,20.232,280.287,21.987,281.143,25.369Zm-7.022-10.232a12.92,12.92,0,0,0-13.014,13.1c0,7.235,5.351,12.972,13.227,12.972a12.521,12.521,0,0,0,11.688-6.764l-4.75-2.74a7.3,7.3,0,0,1-6.938,4.41,7.411,7.411,0,0,1-7.7-5.908h20.379V28.023A12.51,12.51,0,0,0,274.121,15.138Z" transform="translate(32.981 5.343)" fill="#2e067a" fill-rule="evenodd"/>
    <path id="Path_34265" data-name="Path 34265" d="M20.3,41.3V19.682l7.575,7.575L33.229,21.9,23.217,11.889H12.723v37.2H23.217L36.468,35.84,40,39.376l-14,14H7.668V7.608H26.007l14,14ZM50.715,21.6,29.144.033H.094V60.947H29.144L50.715,39.376,41.83,30.49Z" transform="translate(0.085 0.03)" fill="#6e3af9"/>
  </g>
</svg>
