<svg id="_12" data-name="12" xmlns="http://www.w3.org/2000/svg" width="295.851" height="80" viewBox="0 0 295.851 80">
  <path id="Path_34252" data-name="Path 34252" d="M37.571,71.377H40.8v2.534h-3.23Zm16.646-5.963,3.23.2v2.634c-1.143,0-2.037-.2-3.23-.2Zm-8.348-.447,3.23.1V67.7l-3.23-.2Zm-16.6-.2H32.5V67.3h-3.23Zm41.193-4.721c.348.149,2.484.248,3.13.4v3.031l-3.13-.4Zm-37.913.547V58.06c.447,0,.4-.1.845-.1h2.385V60.5H33.4C32.95,60.5,33,60.594,32.552,60.594Zm21.665,2.733-5.565-.2c-.7-.05-1.739-.1-2.484-.2a12.075,12.075,0,0,0-1.342,0c-.5,0-.646-.1-1.242-.1V50.309c3.18,0,9.938.05,12.87.745a8.156,8.156,0,0,1,3.528,1.59,1.34,1.34,0,0,1,.4.348c1.441,1.342,1.64,3.329,1.64,5.267.05,4.571-3.925,5.068-7.8,5.068Zm-21.665-8.7h3.23v2.534h-3.23Zm3.329-10.087h3.23v2.634h-3.23Zm.348-10.037h3.23v2.534h-3.23Zm34.236,1.043V32.52a19.142,19.142,0,0,0,3.13-.3v3.13C72.552,35.352,71.558,35.551,70.465,35.551ZM43.633,41.613V28.843h1.441l8.4-.4a15.382,15.382,0,0,1,3.975.348c2.733.894,2.932,2.683,2.783,5.814-.2,4.224-4.273,6.311-8.149,6.509-.447.05-.8.05-1.342.1-1.888.149-3.776.3-5.665.3a10.9,10.9,0,0,0-1.441.1ZM31.608,31.228h3.23v2.534h-3.23ZM70.465,27.7V24.669c1.093,0,1.988-.4,3.13-.4V27.3C72.85,27.4,71.111,27.7,70.465,27.7ZM33.4,26.955c0-3.429-.447-2.584,2.286-2.634.447,0,.447-.1.845-.1v2.634H34.838c-.646,0-.845.1-1.441.1Zm4.373-.2h-.3V24.222l3.23-.2v2.634C39.608,26.656,38.863,26.756,37.77,26.756ZM49.844,13.439v6.708l-1.789.1c-.944.1-4.87.149-5.416.248V17.812a15.805,15.805,0,0,0,3.13-.2V13.638l-11.13.646c-.447,0-1.441-.2-1.441.3v6.41h-8c-.2,0-.3.05-.3.3v2.932c0,.2.05.3.3.3h3.031v2.534H24.9v3.13c0,.2.05.3.3.3h3.876V40.967c0,.2.05.3.3.3H32.3V43.8H29.372c-.2,0-.3.05-.3.3v3.578c0,.2.05.3.3.3H32.3v2.534H29.372c-.2,0-.3.05-.3.3V61.29H25.2c-.2,0-.3.05-.3.3V67.9c0,.547,1.342.2,2.435.2h.745v2.385c0,.2.05.3.3.3H33.2v6.41c0,.4.745.3,1.888.4.845.05,3.28.05,4.373.2a8.025,8.025,0,0,0,1.093,0,6.977,6.977,0,0,0,1.143.1V75.352c1.193,0,2.037.2,3.23.2V71.278l2.435.2c.8,0,1.64.2,2.435.2v7.006c1.093,0,4.472.5,5.863.7l5.665.845v-7.2c3.18,0,5.814.7,9.391-.745a9.415,9.415,0,0,0,5.963-5.913,19.626,19.626,0,0,0,.5-10.037,11.985,11.985,0,0,0-1.292-3.528l-.547-.894c-.248-.3-.6-.348-1.193-.348-1.342,0-2.435-.1-3.776-.1V47.774s-2.037-.8-3.081-1.043a19.315,19.315,0,0,0-3.528-.646V43.7a40.708,40.708,0,0,0,4.671-1.739,8.151,8.151,0,0,0,1.988-1.242c4.969-3.429,6.211-9.739,4.621-15.453-.447-1.64-.3-.547-.745-1.789-.447-1.342-2.634-3.031-4.174-3.627a12.977,12.977,0,0,0-5.665-.944,20.314,20.314,0,0,0-3.13.2v-.745c-1.043,0-2.186.4-3.23.4V15.824c.447,0,1.093-.149,1.59-.2.447-.05,1.143-.149,1.64-.248V11.7c-.3,0-8.894,1.342-10.981,1.491-.248,0-.5-.1-.5.248ZM287.062,57.116c0,.2.05.3.3.3h5.665c.447,0,.3-.745.3-1.242V45.191a2.023,2.023,0,0,1,.6.7l8.7,11.13c.149.149.149.348.447.348h5.019c.2,0,.3-.05.3-.3V34.806h-6.261V46.532L293.969,36.2c-.248-.3-.944-1.391-1.242-1.391h-5.665ZM105.795,52.3h-4.273V48.222h5.118c1.441,0,2.534.646,2.534,2.087C109.223,51.948,107.484,52.3,105.795,52.3Zm-.646-8.5h-3.578V39.924c1.689,0,4.671-.248,5.863.4a.9.9,0,0,1,.547.5,1.861,1.861,0,0,1,.3,1.242C108.279,43.452,106.639,43.8,105.149,43.8ZM95.31,35.1V57.116c0,.2.05.3.3.3h10.186c2.634,0,5.068-.3,6.708-1.242a5.577,5.577,0,0,0,3.031-5.217,5,5,0,0,0-1.342-3.578,6.114,6.114,0,0,0-2.186-1.491c-.348-.149-.646-.149-.845-.4a5.109,5.109,0,0,0,3.329-4.522c0-2.186-.4-3.528-2.286-4.82a9,9,0,0,0-4.919-1.342H95.558c-.2,0-.248.05-.248.3Zm47.155,10.932c0-3.18,2.286-5.963,5.217-5.963a5.219,5.219,0,0,1,3.081.6,5.788,5.788,0,0,1,3.031,4.87c0,1.988-.248,3.478-1.64,4.87A5.692,5.692,0,0,1,142.465,46.035Zm-6.41-.547a11.877,11.877,0,0,0,1.093,5.714,8.629,8.629,0,0,0,1.093,1.739,12.025,12.025,0,0,0,9.342,4.82,12.474,12.474,0,0,0,7.7-2.137,11.746,11.746,0,0,0,4.969-8.348,4.016,4.016,0,0,1,.05-.745c.348-2.385-.8-5.317-2.137-7.3a12.277,12.277,0,0,0-9.888-4.919,13.422,13.422,0,0,0-6.807,1.888l-1.64,1.292a10.258,10.258,0,0,0-1.391,1.54,11.061,11.061,0,0,0-2.385,6.46ZM226.59,35.1V57.116c0,.2.05.3.3.3h6.062V48.768h7.95v8.3c0,.2.05.3.3.3h5.764c.2,0,.3-.05.3-.3V35.1c0-.2-.05-.3-.3-.3H240.9v8.4h-7.95v-8.4h-6.062c-.248,0-.3.05-.3.3Zm35.23,7.056a13.185,13.185,0,0,0,.547,1.491c.248.6,1.789,4.422,1.789,4.72h-4.82c.05-.4,1.54-3.975,1.839-4.72a3.334,3.334,0,0,1,.3-.745ZM249.546,57.414h6.062c.4,0,.8-1.391,1.043-1.988.149-.348.3-.7.447-1.093.248-.6.248-.994.6-.994h8.2c.3,0,.248.1.348.348l1.093,2.683a3.383,3.383,0,0,0,.5,1.043h6.559a22.13,22.13,0,0,0-1.143-2.932l-1.789-4.273c-.2-.5-.4-.944-.6-1.441-.447-.994-.8-1.888-1.193-2.832l-2.435-5.764c-.4-.944-.8-1.888-1.193-2.882l-.894-2.137c-.1-.3-.149-.6-.447-.6h-5.565c-.4,0-.547.7-.745,1.193l-4.373,10.236c-1.342,3.18-3.081,7.056-4.273,10.087-.3.8-.7,1.342-.2,1.342ZM162.689,45.787a11.837,11.837,0,0,0,3.28,8.646,11.7,11.7,0,0,0,7.752,3.379c2.783,0,4.621-.2,6.857-1.54.845-.5,3.578-2.783,3.627-3.627-.248-.05-.348-.2-.6-.348-.2-.149-.348-.248-.547-.4l-3.478-2.435c-1.391.944-1.64,2.634-5.366,2.634-2.832,0-5.019-2.733-5.019-5.565a6.394,6.394,0,0,1,1.491-4.671,5.4,5.4,0,0,1,7.752-.05l.944.994,1.739-1.342a4.664,4.664,0,0,1,.6-.447c.4-.348.8-.547,1.193-.894a9.323,9.323,0,0,1,1.193-.894,3.891,3.891,0,0,0-.8-.994,10.469,10.469,0,0,0-1.888-1.739,11.04,11.04,0,0,0-3.727-1.689,12.907,12.907,0,0,0-8,.547,7.693,7.693,0,0,0-1.888,1.043c-.3.2-.547.4-.845.6a15.861,15.861,0,0,0-2.186,2.286A11.929,11.929,0,0,0,162.689,45.787Zm50.733,11.975c2.634,0,4.571-.149,6.907-1.59a7.761,7.761,0,0,0,1.491-1.143,9.911,9.911,0,0,0,2.137-2.385c-.6-.4-4.373-3.23-4.72-3.329a8.769,8.769,0,0,0-.894.944,5.368,5.368,0,0,1-.994.8c-3.528,2.385-8.547.2-8.547-5.019a6.43,6.43,0,0,1,1.441-4.124,5.279,5.279,0,0,1,7.354-.6,4.324,4.324,0,0,1,.547.447l.894.994c1.044-.7,2.435-1.888,3.528-2.683.447-.3.745-.6,1.193-.894-.149-.547-1.193-1.491-1.59-1.938-3.13-3.13-8.6-3.578-12.671-1.938a14.252,14.252,0,0,0-1.938.994,11.442,11.442,0,0,0-4.075,4.621,9.065,9.065,0,0,0-.8,2.137,11.819,11.819,0,0,0-.2,5.118,13.815,13.815,0,0,0,.646,2.286,8.916,8.916,0,0,0,.994,1.938A11.113,11.113,0,0,0,208.7,56.52a11.83,11.83,0,0,0,4.721,1.242Z" transform="translate(-12.527 -5.837)" fill="#039bd3"/>
  <path id="Path_34253" data-name="Path 34253" d="M174.36,51.18c0,.2.05.3.3.3h5.764c.447,0,.3-1.491.3-2.385V46.36c0-.994-.05-.8.894-1.789l1.292-1.441,5.665,8.3h4.075a.884.884,0,0,0-.4-.547,13.816,13.816,0,0,1-4.323-6.907,13.557,13.557,0,0,1-.547-3.627,14.508,14.508,0,0,1,.447-3.627l.8-2.385c.149-.3.2-.547.348-.8a16.448,16.448,0,0,1,1.689-2.584l1.044-1.143a11.911,11.911,0,0,0,1.143-1.043h-4.522c-.1.348-.2.3-.4.547a5.44,5.44,0,0,1-.5.547L185.541,32.1a10.483,10.483,0,0,0-.944,1.143l-3.329,3.925c-.2.2-.348.4-.5.547v-8.05c0-.447.149-.944-.3-.944H174.41v22.46Zm-68.621,0c0,.2.05.3.3.3h16.646c.2,0,.3-.05.3-.3V45.863H112.1V28.869h-6.311V51.18Zm158.41,0c0,.2.05.3.3.3h6.062V28.869H264.2V51.18ZM53.665.7V4.074c.6-.149,1.193-.248,1.789-.4,2.037-.5,1.59.5,1.59-3.776-.3.05-3.13.7-3.379.8Zm0,78.261c0,.348.348.348.646.4a24.087,24.087,0,0,0,2.733.547c0-3.776.248-3.379-.7-3.578a17.562,17.562,0,0,0-2.733-.5v3.13Zm-4.075-.547,3.329.646V76.322c0-.5.1-.6-.2-.745l-3.081-.6Zm-8.2-1.739c0,.4.845.4,1.54.5a12.5,12.5,0,0,0,1.839.248c0-3.925.447-3.18-1.54-3.478a11.555,11.555,0,0,0-1.839-.2Zm8.2-75.13V4.869c.894-.1,2.484-.547,3.329-.547V.844c-.547.2-2.783.447-3.329.7Zm-4.025.7V5.565c.248,0,2.981-.447,3.081-.5.348-.2.2-.646.2-1.64V1.639c-.5.1-1.043.2-1.59.3A9.23,9.23,0,0,1,45.565,2.235ZM33.193,3.925v3.13c1.193,0,2.236-.3,3.379-.3V3.527Zm-4.174.547c0,3.329-.2,2.882.547,2.832L32.4,7.1V4.024c-.7,0-1.143.05-1.789.1-1.043.05-1.59,0-1.59.348Zm8.3,71.95,3.329.5V73.589a30.623,30.623,0,0,1-3.329-.4ZM24.845,4.471V7.6l2.534-.1c.348,0,.447-.1.845-.1V4.273a3.007,3.007,0,0,0-.745.1h-.944a16.3,16.3,0,0,1-1.689.1Zm0,70.907c1.143,0,2.286.2,3.379.2v-3.13c-1.093,0-2.286-.2-3.379-.2ZM16.547,4.77V6.36C16.547,8.1,15.9,7.8,19.925,7.8V4.67A25.34,25.34,0,0,0,16.547,4.77Zm20.77-1.342v3.23c1.043-.1,2.236-.4,3.329-.4V2.981A30.073,30.073,0,0,1,37.317,3.428ZM16.547,72.347v2.534c0,.2.05.3.3.3h3.13v-3.13h-3.13C16.6,72.049,16.547,72.1,16.547,72.347Zm12.472,3.031c0,.348.3.3.646.3.7,0,1.64.2,2.733.2v-3.13c-1.193,0-2.137-.2-3.379-.2ZM12.373,4.968V7.5c0,.2.05.3.3.3H15.8V4.77c-.3,0-.348-.1-.646-.1H12.72c-.3,0-.348.05-.348.3Zm41.292,63.6c0,3.429-.447,2.683,1.739,3.081,2.087.4,1.64.944,1.64-2.534,0-.348-.4-.348-.745-.4l-1.938-.348c-.4-.05-.7-.2-.7.2Zm0-60.025v3.031c.547-.05,1.193-.2,1.789-.3.248-.05.646-.1.894-.149.994-.149.745,0,.745-3.13a27.321,27.321,0,0,0-3.429.547ZM57.739,7.8v3.031a9.777,9.777,0,0,0,1.739-.248c1.988-.4,1.59.4,1.59-3.429ZM20.72,75.18l3.379.1V72.248c-.5,0-.5-.1-1.043-.1H20.671V75.18ZM57.739,4.223c0,3.031-.2,2.932.646,2.733l2.634-.547V3.279a20.19,20.19,0,0,0-2.584.547c-.3.05-.7.05-.7.4Zm0,67.627c0,.4.745.348,1.54.547a11.6,11.6,0,0,0,1.739.3v-3.13a27.306,27.306,0,0,0-3.329-.547V71.85ZM49.59,74.335c.447.05,1.193.2,1.64.3a10.043,10.043,0,0,0,1.689.3V71.9c-.8,0-2.236-.5-3.329-.5Zm0-3.677,3.329.547V68.173c-.894-.05-2.534-.5-3.329-.5Zm0-65.143V8.447a32.51,32.51,0,0,0,3.329-.5V4.919c-.845.1-2.484.6-3.329.6Zm0,3.677v2.932l3.329-.5V8.6ZM12.373,38.807v2.286c0,.2.05.3.3.3H15.8V38.658c-.3,0-.348-.1-.646-.1H12.72c-.3-.05-.348,0-.348.248Zm20.82,33.342c.447.1,1.292.149,1.789.2,1.988.1,1.59.994,1.59-2.634-.8,0-1.988-.3-3.379-.3ZM0,34.434c.547,0,.646.1,1.242.1H3.429V32c0-.2-.05-.3-.3-.3H0ZM0,45.416v2.733H3.13c.2,0,.3-.05.3-.3,0-2.733.2-2.584-.646-2.584ZM33.193,68.77c1.093,0,2.335.3,3.379.3V66.235c-1.193,0-2.137-.2-3.379-.2ZM0,17.142c0,.5.7.2,1.59.3.547.05,1.143.05,1.839.05V14.757c-1.143,0-2.286-.2-3.379-.2v2.584ZM.3,48.794H0v2.733H3.13c.2,0,.3-.05.3-.3V48.7c-1.193,0-1.988.1-3.13.1ZM0,27.627l3.379.1V24.993c-.646,0-.944-.1-1.59-.1H0Zm8.2-2.236c0,2.932-.4,2.484,1.59,2.435.745,0,1.193.1,1.789.1V25.192c-.3,0-.348-.1-.646-.1H8.5C8.3,25.093,8.2,25.142,8.2,25.391ZM0,62.509v2.733l3.379-.2V62.31c-1.143,0-2.286.1-3.379.2ZM0,21.664V24.2c1.242,0,2.137.1,3.379.1V21.565l-2.733-.1c-.3,0-.646-.2-.646.2ZM0,65.888V68.62c1.193,0,2.286-.2,3.379-.2V65.689l-2.534.1a3.941,3.941,0,0,1-.845.1ZM8.2,32.1v2.435H9.988c.7,0,.944.1,1.59.1V31.8H8.447C8.3,31.8,8.2,31.85,8.2,32.1Zm0,37.019c0,3.379-.7,2.385,3.379,2.385V68.77l-2.733.1C8.547,68.819,8.2,68.77,8.2,69.117ZM4.174,38.807v2.534h3.28V38.509H4.422C4.224,38.509,4.174,38.558,4.174,38.807ZM8.2,15.254v2.435c.6,0,.8.1,1.441.1h1.988V15.055a20.526,20.526,0,0,1-2.484-.05c-.4-.05-.944-.149-.944.248Zm0,6.708v2.286c0,.2.05.3.3.3h3.13V21.813H9.193c-.5-.05-.994-.348-.994.149Zm4.174-9.938c0,1.391-.2,2.435.3,2.435H15.8V11.726h-3.13C12.422,11.776,12.373,11.825,12.373,12.024Zm0,30.161c0,1.391-.2,2.435.3,2.435H15.8V41.888h-3.13C12.422,41.888,12.373,41.987,12.373,42.186Zm0,6.708c0,1.391-.2,2.435.3,2.435H15.8V48.6h-3.13C12.422,48.6,12.373,48.7,12.373,48.894Zm4.174-36.87c0,1.391-.2,2.435.3,2.435h3.13V11.726h-3.13C16.6,11.776,16.547,11.825,16.547,12.024ZM8.2,45.614c0,1.391-.2,2.435.3,2.435h3.13V45.316H8.5C8.3,45.316,8.2,45.366,8.2,45.614Zm0,6.708c0,1.391-.2,2.435.3,2.435h3.13V52.024H8.5C8.3,52.024,8.2,52.074,8.2,52.322ZM12.373,28.77c0,1.391-.2,2.435.3,2.435H15.8V28.471h-3.13C12.422,28.471,12.373,28.571,12.373,28.77Zm0,6.708c0,1.391-.2,2.435.3,2.435H15.8V35.179h-3.13C12.422,35.179,12.373,35.279,12.373,35.478Zm4.174,30.161c0,1.391-.2,2.435.3,2.435h3.13V65.341h-3.13C16.6,65.341,16.547,65.391,16.547,65.639ZM8.2,35.478c0,1.391-.2,2.435.3,2.435h3.13V35.179H8.5A.264.264,0,0,0,8.2,35.478Zm0,26.932c0,2.634-.2,2.484.646,2.484l2.733-.1V62.061l-2.186.05C8.944,62.161,8.2,61.962,8.2,62.409Zm0,3.329c0,3.18-.1,2.435.547,2.435h2.832V65.44H8.447C8.3,65.44,8.2,65.49,8.2,65.739Zm4.174-13.714c0,3.528-.2,2.634.944,2.634h2.435V51.925H13.565C13.019,51.925,12.919,52.024,12.373,52.024Zm0-24.4c0,.2.05.3.3.3H15.8V25.192H12.422v2.435ZM8.2,42.186V44.67h3.379V41.937H8.447C8.3,41.888,8.2,41.987,8.2,42.186Zm4.174,23.453v2.435h3.379V65.341h-3.13c-.2,0-.248.05-.248.3ZM8.2,59.03v2.435h3.379V58.732H8.447C8.3,58.732,8.2,58.782,8.2,59.03ZM17.391,8.447h-.845v2.435c0,.348.2.3.646.3,1.043,0,1.689-.1,2.733-.1V8.347C18.981,8.347,18.385,8.447,17.391,8.447ZM16.547,71.4c.5,0,.5.1,1.043.1h2.385V68.77H16.6V71.4ZM4.174,18.484c0,2.584-.2,2.534.547,2.584l2.733.1V18.434c-.894-.2-1.938,0-2.733-.149-.2-.05-.547-.248-.547.2Zm0,40.447v2.733l3.28-.1V58.832A17.681,17.681,0,0,0,4.174,58.931Zm0-27.776H5.466c.8,0,1.193.1,1.988.1V28.422H4.174Zm0,20.969v2.733H6.062c.646,0,.8-.1,1.441-.1V52.024c-1.242,0-2.137.1-3.329.1Zm0,3.379v2.733c1.193,0,2.087-.1,3.329-.1V55.4H5.814c-.745,0-.994.1-1.64.1Zm0-37.863c1.242,0,2.087.1,3.329.1V15.006c-.845,0-1.292-.1-2.186-.1H4.174Zm0,48v2.733H4.72c1.043,0,1.689-.1,2.733-.1V65.54C6.261,65.54,5.366,65.639,4.174,65.639Zm0-14.161h3.28V48.745H4.174Zm0-3.429h3.28V45.316H4.174Zm0-13.516h3.28V31.8H4.174Z" transform="translate(0 0.1)" fill="#039bd3"/>
</svg>
