<svg xmlns="http://www.w3.org/2000/svg" width="352.47" height="64.946" viewBox="0 0 352.47 64.946">
  <g id="_4" data-name="4" transform="translate(-115 9.6)">
    <path id="Path_34212" data-name="Path 34212" d="M115-9.6h25.841c4.922,0,8.614,1.231,11.348,3.281a12.894,12.894,0,0,1,4.649,10.391c0,5.059-2.051,8.2-6.152,10.117v.273c5.469,1.777,8.613,6.7,8.613,12.578,0,5.606-2.188,9.981-5.742,12.715-3.008,2.188-6.836,3.145-12.032,3.145H115Zm23.243,20.508c2.734,0,4.785-1.5,4.785-4.649,0-3.008-2.051-4.512-4.922-4.512h-8.887v9.024h9.024Zm1.23,20.372c3.145,0,5.469-1.914,5.469-5.332,0-3.692-2.461-5.332-5.469-5.332H129.356v10.8h10.117Z" transform="translate(0)"/>
    <path id="Path_34213" data-name="Path 34213" d="M149.1-9.6h13.536V43.038H149.1Z" transform="translate(12.522)"/>
    <path id="Path_34214" data-name="Path 34214" d="M161,20.525C161,8.63,168.656.7,180.551.7s19.415,8.067,19.415,19.825c0,11.895-7.52,19.825-19.415,19.825S161,32.42,161,20.525Zm25.43,0c0-6.563-2.051-10.664-6.152-10.664s-6.016,4.1-6.016,10.664,1.914,10.8,6.016,10.8C184.38,31.189,186.43,27.087,186.43,20.525Z" transform="translate(16.892 3.782)"/>
    <path id="Path_34215" data-name="Path 34215" d="M190.6,20.525C190.6,8.63,198.256.7,210.151.7s19.278,7.93,19.278,19.825-7.52,19.825-19.415,19.825C198.256,40.35,190.6,32.42,190.6,20.525Zm25.43,0c0-6.563-2.051-10.664-6.153-10.664s-6.016,4.1-6.016,10.664,1.914,10.8,6.016,10.8C213.98,31.189,216.03,27.087,216.03,20.525Z" transform="translate(27.762 3.782)"/>
    <path id="Path_34216" data-name="Path 34216" d="M221,1.694h12.578V7.3h.273C236.313,2.924,239.731.6,245.2.6a10.384,10.384,0,0,1,10.117,6.426h.273C258.6,2.1,262.564.6,267.212.6c8.75,0,12.442,6.426,12.442,15.039V39.156H266.529V17.964c0-3.828-1.23-6.289-4.512-6.289s-4.922,3.008-4.922,7.11V39.156H243.969V17.964c0-3.828-1.23-6.289-4.512-6.289s-4.922,3.008-4.922,7.11V39.156H221Z" transform="translate(38.926 3.746)"/>
    <path id="Path_34217" data-name="Path 34217" d="M279.415,37.979h-.137V42.9H266.7V-9.6h13.125V9.268h.273c2.461-3.281,5.879-5.059,10.664-5.059,9.434,0,14.9,8.477,14.9,19.825,0,12.715-5.879,20.1-15.723,20.1A11.575,11.575,0,0,1,279.415,37.979ZM292.13,23.9c0-6.016-2.188-9.981-6.152-9.981-4.1,0-6.563,3.965-6.563,9.981s2.6,9.981,6.563,9.981S292.13,30.05,292.13,23.9Z" transform="translate(55.708)"/>
    <path id="Path_34218" data-name="Path 34218" d="M296.3,20.425C296.3,8.667,304.093.6,315.3.6c5.606,0,9.844,1.777,13.125,4.922,4.375,4.238,6.289,10.8,6.152,18.458H309.425c.547,4.649,2.734,7.11,6.7,7.11a5.125,5.125,0,0,0,5.2-3.555h12.715c-2.188,8.614-8.887,12.852-18.321,12.852C304.093,40.25,296.3,32.32,296.3,20.425Zm13.125-3.965h12.032c-.273-4.512-2.734-6.836-5.879-6.836C311.886,9.487,309.836,12.085,309.425,16.46Z" transform="translate(66.578 3.746)"/>
    <path id="Path_34219" data-name="Path 34219" d="M338.578,8.046h.273c2.734-5.2,6.289-7.246,10.8-7.246a4.08,4.08,0,0,1,2.188.41V12.695h-.273c-7.793-1.367-12.305,2.324-12.305,10.8V39.219H326V1.62h12.578Z" transform="translate(77.484 3.819)"/>
    <path id="Path_34220" data-name="Path 34220" d="M346.084,39.329H358.8c.547,1.641,2.188,3.145,5.332,3.145,4.238,0,5.742-2.6,5.742-6.563V33.177H369.6a11.235,11.235,0,0,1-9.024,4.238c-8.067,0-15.176-6.016-15.176-17.774C345.4,8.84,351.142.5,359.893.5c5.059,0,8.067,2.051,10.117,5.2h.273v-4.1h12.578v32.54c0,6.016-2.051,10.664-5.2,13.4-3.281,2.871-7.93,4.1-13.262,4.1C354.287,51.771,347.314,47.669,346.084,39.329ZM370.42,19.094c0-4.649-2.188-8.477-6.016-8.477-3.692,0-6.016,3.281-6.016,8.477,0,5.059,2.324,8.614,6.016,8.614S370.42,24.016,370.42,19.094Z" transform="translate(84.609 3.709)"/>
  </g>
</svg>
