<svg xmlns="http://www.w3.org/2000/svg" xmlns:xlink="http://www.w3.org/1999/xlink" width="433.882" height="71.27" viewBox="0 0 433.882 71.27">
  <defs>
    <linearGradient id="linear-gradient" x1="0.5" x2="0.5" y2="1" gradientUnits="objectBoundingBox">
      <stop offset="0" stop-color="#085712"/>
      <stop offset="1" stop-color="#6ab976"/>
    </linearGradient>
  </defs>
  <g id="_6" data-name="6" transform="translate(0)">
    <path id="Path_18069" data-name="Path 18069" d="M-346.215,5039.815c-.484-.563-1.209-.41-1.811-.542-7.858-1.721-12.628-6.763-13.691-14.775-1.017-7.67.843-14.351,7.209-19.276a19.7,19.7,0,0,1,11.423-3.912,32.482,32.482,0,0,1,10.94,1.156c.9.27,1.353.645,1.313,1.661-.073,1.817-.071,3.641,0,5.457.044,1.171-.344,1.082-1.2.683a19.748,19.748,0,0,0-11.646-1.732,11.011,11.011,0,0,0-9.2,9.384,17.8,17.8,0,0,0,.328,7.2,9.636,9.636,0,0,0,9.155,7.493,14.088,14.088,0,0,0,4.811-.364c.593-.178.989-.411.98-1.12-.025-1.87-.03-3.74,0-5.61.013-.768-.365-.926-1.027-.917-1.718.022-3.438-.036-5.154.022-.892.03-1.281-.187-1.23-1.168.078-1.512.06-3.034.005-4.547-.03-.837.214-1.155,1.1-1.147q6.822.054,13.644,0c.894-.007,1.1.341,1.1,1.162q-.04,8.415,0,16.83a1.354,1.354,0,0,1-.883,1.389,26.117,26.117,0,0,1-7.946,2.353c-.325.048-.731-.11-.931.315h-1.213a15.462,15.462,0,0,0-4.852,0Z" transform="translate(633.62 -4984.934)" fill="#6ab976"/>
    <path id="Path_18070" data-name="Path 18070" d="M-1021.16,5039.784c-.113-.4-.471-.294-.743-.358-8.49-2.033-12.878-6.646-13.916-15.344-.963-8.072,1.313-15.022,8.366-19.777,4.555-3.072,9.712-3.4,14.986-2.906a21.05,21.05,0,0,1,4.595.9c.482.157.937.271.927.97-.034,2.406-.013,4.81-.013,7.425a18.564,18.564,0,0,0-7.962-2.182c-7.665-.308-12.87,5.124-12.159,13.309.557,6.425,3.992,10.007,9.8,10.584a17.06,17.06,0,0,0,8.839-1.566c.409-.187.827-.355,1.243-.524.036-.016.095.025.237.07,0,2.179-.027,4.39.015,6.6.014.709-.352.971-.91,1.188a22.587,22.587,0,0,1-5.267,1.309c-.277.035-.626-.084-.764.306h-1.213a15.431,15.431,0,0,0-4.852,0Z" transform="translate(1103.254 -4984.901)" fill="#383838"/>
    <path id="Path_18071" data-name="Path 18071" d="M120.984,5033.882l.319-.047v6.975c-6.866-.016-13.732-.069-20.6-.011-1.41.011-1.889-.285-1.881-1.8.065-11.31.031-22.618.052-33.929,0-.5-.307-1.117.3-1.516a3.378,3.378,0,0,1,.462,2.463q.021,15.515.009,31.031c0,.5.019,1.009.01,1.515-.018,1.019.476,1.446,1.478,1.449q8.931.012,17.862,0c1.1,0,1.471-.487,1.531-1.552C120.617,5036.934,120.105,5035.334,120.984,5033.882Z" transform="translate(312.579 -4986.535)" fill="#8eca97"/>
    <path id="Path_18072" data-name="Path 18072" d="M-306,5127.549a8.134,8.134,0,0,1,4.852,0Z" transform="translate(594.617 -5072.668)" fill="#6ab976"/>
    <path id="Path_18073" data-name="Path 18073" d="M-983,5127.55a8.127,8.127,0,0,1,4.852,0Z" transform="translate(1066.307 -5072.668)" fill="#2a5a99"/>
    <path id="Path_18074" data-name="Path 18074" d="M-453,5127.544a5.408,5.408,0,0,1,3.942,0Z" transform="translate(697.037 -5072.664)" fill="#2a5a99"/>
    <path id="Path_18075" data-name="Path 18075" d="M-100,5127.547a5.413,5.413,0,0,1,3.942,0Z" transform="translate(451.09 -5072.665)" fill="#8fcb98"/>
    <path id="Path_18076" data-name="Path 18076" d="M121.772,5033.732c.005,1.715-.048,3.435.037,5.146.054,1.1-.245,1.5-1.419,1.483q-9.539-.079-19.08,0c-1.052.007-1.381-.3-1.378-1.367q.057-17.795.036-35.587c6.717-.015,13.434-.015,20.151-.064.9-.007,1.107.326,1.077,1.145-.053,1.462-.076,2.933.006,4.392.058,1.045-.259,1.4-1.339,1.377-3.434-.067-6.87.021-10.3-.051-1.129-.024-1.5.281-1.444,1.432.095,1.915.065,3.838.008,5.756-.026.881.3,1.115,1.136,1.1,3.232-.04,6.466.028,9.7-.042,1.082-.022,1.4.317,1.336,1.367a37.958,37.958,0,0,0,0,4.24c.049.941-.277,1.207-1.2,1.192-3.232-.049-6.466.017-9.7-.04-.993-.017-1.312.278-1.275,1.28.074,1.966.088,3.943,0,5.907-.053,1.123.379,1.315,1.386,1.307C113.591,5033.668,117.682,5033.714,121.772,5033.732Z" transform="translate(311.79 -4986.385)" fill="#6ab976"/>
    <path id="Path_18077" data-name="Path 18077" d="M-821.126,5003.356c3.064,0,5.89.028,8.716-.017a1.206,1.206,0,0,1,1.334.887c1.991,5.061,4.567,9.878,6.188,15.09a1.371,1.371,0,0,0,.236.344c1.938-5.375,4.428-10.431,6.587-15.628a.956.956,0,0,1,1.02-.683c2.665.018,5.33.008,8.249.008-.476.921-.867,1.661-1.243,2.407-3.4,6.753-6.78,13.513-10.206,20.251a6.019,6.019,0,0,0-.67,2.894c.036,3.383-.046,6.768.044,10.149.033,1.251-.4,1.546-1.551,1.49a49.323,49.323,0,0,0-5.3,0c-1.229.073-1.659-.242-1.62-1.555.1-3.278.006-6.562.048-9.846a6.435,6.435,0,0,0-.7-3.035C-813.686,5018.62-817.341,5011.105-821.126,5003.356Z" transform="translate(953.524 -4986.384)" fill="#383838"/>
    <path id="Path_18078" data-name="Path 18078" d="M-586.074,5025.5c0,4.492-.049,8.987.031,13.479.023,1.3-.387,1.645-1.623,1.571a36.632,36.632,0,0,0-5.146.009c-1.479.125-1.705-.471-1.7-1.781.053-8.936-.011-17.874.065-26.808.013-1.5-.424-1.87-1.858-1.8-2.569.118-5.148.009-7.723.046-.779.012-1.067-.219-1.039-1.025.054-1.615.06-3.232,0-4.846-.032-.829.277-1,1.042-1q13.783.034,27.566,0c.824,0,1.031.294,1.01,1.055-.044,1.564-.052,3.133,0,4.7.03.864-.284,1.137-1.136,1.123-2.675-.042-5.353.051-8.026-.045-1.237-.042-1.508.391-1.492,1.545C-586.039,5016.315-586.074,5020.909-586.074,5025.5Z" transform="translate(802.988 -4986.389)" fill="#383838"/>
    <path id="Path_18079" data-name="Path 18079" d="M-230.064,5021.828c0-5.707.033-11.416-.028-17.123-.012-1.138.289-1.48,1.428-1.421a48.64,48.64,0,0,0,5.6,0c1.277-.082,1.474.425,1.469,1.551-.04,9.04.012,18.082-.058,27.121-.011,1.43.419,1.75,1.765,1.715,3.533-.091,7.071,0,10.605-.052,1.017-.016,1.449.2,1.378,1.313-.1,1.508-.059,3.031-.01,4.545.025.791-.251,1.05-1.04,1.047-6.667-.022-13.334-.034-20,.01-1.025.005-1.129-.435-1.125-1.275C-230.051,5033.445-230.064,5027.636-230.064,5021.828Z" transform="translate(541.73 -4986.336)" fill="#6ab976"/>
    <path id="Path_18080" data-name="Path 18080" d="M-1107.682,5050.646c-16.443,4.881-32.159,3.361-47.1-5.281a2.475,2.475,0,0,1-1.313-3.085,37.967,37.967,0,0,1,6.109-14.02c.921-1.312,1.624-1.118,2.806-.426,3.958,2.324,3.986,2.278,1.922,6.322-3.678,7.208-3.365,8.09,4.1,11.2,1.511.626,3.073,1.127,4.722,1.725a46,46,0,0,1,3.513-11.171c.883-1.832,2.118-1.866,3.533-1.289,1.686.689.325,1.859.067,2.675a72.163,72.163,0,0,0-2.015,8.771c-.347,1.881.158,2.537,2.01,2.9,6.534,1.27,13.115,1.258,19.716,1.062C-1108.886,5049.988-1107.934,5049.235-1107.682,5050.646Z" transform="translate(1156.677 -5013.616)" fill="url(#linear-gradient)"/>
    <path id="Path_18081" data-name="Path 18081" d="M-1103.376,5080.38c-16.757,6.458-33.182,5.824-49.274-2.271a4.847,4.847,0,0,1-2.685-3.184,33.617,33.617,0,0,1-1.585-12.628c2.455,1.1,4.8,2.116,7.1,3.206,1.08.514.924,1.639.951,2.578.14,4.885,2.121,8.208,7.238,9.31,2.6.56,5.033,1.832,7.994,2.145-1.06-2.87-2.229-5.431-2.6-8.212-.1-.77-1.068-2.312.521-2.15,1.277.131,3.517-1.071,3.951,1.576.314,1.915.814,3.8,1.028,5.723.362,3.258,2.056,4.448,5.327,4.619a87.257,87.257,0,0,0,21.434-1.282C-1103.356,5079.563-1103.261,5079.86-1103.376,5080.38Z" transform="translate(1157.016 -5028.198)" fill="url(#linear-gradient)"/>
    <path id="Path_18082" data-name="Path 18082" d="M-1110.506,5005.792a34.785,34.785,0,0,0-19.313,7.978c-1.468,1.226-1.622,2.028.253,2.806.089.04.156.121.242.163,2.165,1.08,4.232,2.669,6.522,3.106,2.591.5,3.237-2.856,5.249-3.878.9-.46,1.441-1.521,2.771-1.7-1.232,1.766-2.314,3.432-3.51,5.006-1.089,1.435-1.091,2.323.9,2.739,2.084.43,4.144.981,6.215,1.481-.432,1.5-1.459.673-2.3.583a55.059,55.059,0,0,1-24.148-7.6c-1.865-1.108-2.268-1.81-.423-3.4,9.38-8.092,20.051-10.922,32.162-8.237C-1107.118,5006.631-1109.056,5005.029-1110.506,5005.792Z" transform="translate(1149.61 -5003.85)" fill="url(#linear-gradient)"/>
    <path id="Path_18083" data-name="Path 18083" d="M-1109.821,5112.068c-15.911,4.036-32.472-4.311-38.881-17.07a91.289,91.289,0,0,0,9.721,3.226,3.592,3.592,0,0,1,1.544,1.235,33.969,33.969,0,0,0,22.995,11.656C-1112.994,5111.876-1111.055,5110.268-1109.821,5112.068Z" transform="translate(1153.552 -5041.824)" fill="url(#linear-gradient)"/>
    <path id="Path_18084" data-name="Path 18084" d="M-486.481,5001.235c-7.85-.262-14.282,3.586-17.324,10.382a23.555,23.555,0,0,0-1.789,10.5c.246,8.319,5.275,15,12.782,17.009.753.2,1.6.117,2.247.663h.91a10.415,10.415,0,0,1,3.942,0h.91c.15-.375.5-.258.775-.306a16.685,16.685,0,0,0,6.737-2.555c5.837-3.958,8.034-9.712,8.155-16.508C-468.938,5009.254-475.853,5001.59-486.481,5001.235Zm6.671,27.02a8.669,8.669,0,0,1-14.961.023,15.157,15.157,0,0,1-.085-15.348c1.874-3.511,5.1-4.8,8.948-4.329,3.8.465,5.945,2.961,7.107,6.408a14.669,14.669,0,0,1,.714,5.51A13.5,13.5,0,0,1-479.811,5028.254Z" transform="translate(733.693 -4984.909)" fill="#383838"/>
    <path id="Path_18085" data-name="Path 18085" d="M-116.646,5018.713c-.273-10.075-7.314-17.2-17.372-17.411-5.918-.127-11.04,1.7-14.815,6.471-4.144,5.241-4.994,11.309-3.807,17.636,1.385,7.373,5.828,12.114,13.209,13.962.4.1.946-.047,1.2.471h1.213a10.376,10.376,0,0,1,3.942,0h.91c.153-.369.5-.263.778-.312a16.9,16.9,0,0,0,12.014-8.139C-116.981,5027.491-116.525,5023.179-116.646,5018.713Zm-10.4,9.228a8.655,8.655,0,0,1-15.175.346,14.978,14.978,0,0,1,.269-15.833c1.879-3.139,4.953-4.192,8.484-3.815a8.069,8.069,0,0,1,6.74,5.19,15.529,15.529,0,0,1,1.24,6.824A14.076,14.076,0,0,1-127.05,5027.941Z" transform="translate(488.108 -4984.961)" fill="#6ab976"/>
    <path id="Path_18086" data-name="Path 18086" d="M13.052,5023.845c-1.593-1.922-3.759-2.827-6.507-3.361a13.491,13.491,0,0,0,3.946-2.1,7.866,7.866,0,0,0-.465-12.905,12.407,12.407,0,0,0-5.4-1.853c-5.539-.648-11.1-.163-16.656-.322-1.1-.03-.884.711-.884,1.33,0,11.471.011,22.943-.027,34.416,0,1.107.268,1.5,1.429,1.486,4.547-.059,9.1.024,13.644-.043a15.964,15.964,0,0,0,7.707-1.914C15.176,5035.588,16.775,5028.33,13.052,5023.845Zm-16.159-14.219a24.682,24.682,0,0,1,4.521.311c2.065.536,3.106,1.558,3.25,3.287a4.256,4.256,0,0,1-2.739,4.582c-1.9.736-3.9.329-5.858.39-.609.02-.526-.5-.53-.886-.01-1.112,0-2.224,0-3.336,0-1.011.072-2.027-.02-3.031C-4.587,5009.833-4.129,5009.556-3.106,5009.626Zm6.739,23.8c-1.734.907-3.619.785-5.486.782-2.612-.007-2.612,0-2.612-2.63V5029.3c0-.253-.016-.505,0-.758.094-1.292-.57-2.99.287-3.773.836-.762,2.508-.177,3.811-.226a9.172,9.172,0,0,1,3.567.562,4.135,4.135,0,0,1,2.932,3.845A4.4,4.4,0,0,1,3.633,5033.428Z" transform="translate(390.431 -4986.343)" fill="#6ab976"/>
    <path id="Path_18087" data-name="Path 18087" d="M-888.335,5039.948q-3.427-5.359-6.865-10.709a15.322,15.322,0,0,0-5.314-5.42c.578-.228.954-.367,1.323-.523a10.468,10.468,0,0,0,6.7-11.635c-.557-4.431-3.951-7.407-9.288-8.034-5.489-.645-11.005-.174-16.507-.325-.752-.021-.928.263-.927.963q.025,17.588-.008,35.176c0,.947.41,1.065,1.185,1.051,1.92-.035,3.845-.088,5.759.016,1.234.069,1.528-.363,1.507-1.536-.068-3.84-.007-7.682-.04-11.523-.007-.814.186-1.1,1.076-1.17a4.924,4.924,0,0,1,4.826,2.519c2.071,3.287,4.16,6.566,6.088,9.938a3.056,3.056,0,0,0,3.224,1.779c2.439-.133,4.891-.035,7.389-.035A2.691,2.691,0,0,0-888.335,5039.948Zm-16.868-20.272a20.226,20.226,0,0,1-4.82.268c-.746.027-.776-.453-.774-1,.006-1.413,0-2.828,0-4.242,0-.759,0-1.514,0-2.271,0-2.808,0-2.811,2.882-2.8.606,0,1.212.012,1.816.049,2.863.186,4.543,1.618,4.812,4.087A5.433,5.433,0,0,1-905.2,5019.676Z" transform="translate(1021.871 -4986.339)" fill="#383838"/>
    <path id="Path_18088" data-name="Path 18088" d="M-673.914,5014.463c-.355-6.623-3.723-10.125-10.792-10.949-5.179-.6-10.4-.126-15.593-.262-1.06-.026-.763.713-.764,1.244q-.021,8.637-.009,17.278c0,5.758.037,11.518-.031,17.275-.014,1.177.343,1.454,1.446,1.4,1.916-.084,3.839-.063,5.757-.008.96.028,1.317-.233,1.3-1.27-.067-3.385.01-6.771-.047-10.154-.017-.99.268-1.3,1.264-1.268a28.305,28.305,0,0,0,7.679-.53C-677.433,5025.7-673.578,5020.7-673.914,5014.463Zm-13.782,6.662c-1.35.143-2.725.034-4.087.086-.678.027-.867-.257-.855-.892.03-1.615.01-3.232.01-4.848,0-1.515.038-3.033-.016-4.547-.029-.828.2-1.2,1.091-1.137,1.256.091,2.526.033,3.779.151,3.194.3,4.9,2.2,4.946,5.4C-682.783,5018.751-684.443,5020.781-687.7,5021.125Z" transform="translate(869.899 -4986.288)" fill="#383838"/>
  </g>
</svg>
