<svg id="_7" data-name="7" xmlns="http://www.w3.org/2000/svg" width="209.618" height="52.272" viewBox="0 0 209.618 52.272">
  <g id="invezz-logo-white">
    <path id="NVEZZ" d="M5.792,32.672,23.744,50.624a2,2,0,0,0,1.056.528,1.478,1.478,0,0,0,1.584-1.32V2.048A1.7,1.7,0,0,0,24.8.464H18.464A1.522,1.522,0,0,0,16.88,2.048V30.824L6.32,19.736C5,18.152,5,19.472,5,20.792v6.072C5,31.352,5,31.88,5.792,32.672Zm47.256-2.64L39.584,2.048A3.033,3.033,0,0,0,36.68.464H31.664a1.8,1.8,0,0,0-1.848,1.848.97.97,0,0,0,.264.792L51.992,50.36a1.783,1.783,0,0,0,1.584,1.056A1.347,1.347,0,0,0,54.9,50.36L76.809,3.1c0-.264.264-.528.264-.792A1.8,1.8,0,0,0,75.225.464h-5.28a3.033,3.033,0,0,0-2.9,1.584Zm63.1-27.192A2.156,2.156,0,0,0,113.769.728H81.825A2.327,2.327,0,0,0,79.449,2.84V48.776a2.156,2.156,0,0,0,2.376,2.112h31.944a2.327,2.327,0,0,0,2.376-2.112V44.024a2.327,2.327,0,0,0-2.376-2.112H88.953V29.24h20.064a2.327,2.327,0,0,0,2.376-2.112V22.64a2.327,2.327,0,0,0-2.376-2.112H88.953V9.176h24.816a2.327,2.327,0,0,0,2.376-2.112V2.84Zm39.864,48.048a2.327,2.327,0,0,0,2.376-2.112V44.288a2.156,2.156,0,0,0-2.376-2.112H133.833l24.552-39.6a.97.97,0,0,0,.264-.792A1.7,1.7,0,0,0,157.065.2h-35.9a2.327,2.327,0,0,0-2.376,2.112V6.8a2.156,2.156,0,0,0,2.376,2.112H143.6l-24.552,39.6a.97.97,0,0,0-.264.792,1.478,1.478,0,0,0,1.584,1.32h35.64Z" transform="translate(8.2 0.328)" fill="#333"/>
    <circle id="Oval" cx="5.28" cy="5.28" r="5.28" fill="#333" opacity="0.5"/>
    <path id="Rounded_Rectangle_2" d="M1.092,6.3h7.92a.7.7,0,0,1,.792.792h0v34.32a.568.568,0,0,1-.528.528h0A8.9,8.9,0,0,1,.3,32.964V7.092A.843.843,0,0,1,1.092,6.3Z" transform="translate(0.492 10.332)" fill="#333"/>
    <path id="Path" d="M101.524,51.052A2.327,2.327,0,0,0,103.9,48.94V44.452a2.156,2.156,0,0,0-2.376-2.112l-22.176-.264L103.9,2.476a.97.97,0,0,0,.264-.792A1.7,1.7,0,0,0,102.58.1h-35.9A2.327,2.327,0,0,0,64.3,2.212V6.7a2.156,2.156,0,0,0,2.376,2.112h22.44l-24.552,39.6a.97.97,0,0,0-.264.792,1.478,1.478,0,0,0,1.584,1.32h35.64Z" transform="translate(105.453 0.164)" fill="#333"/>
  </g>
</svg>
