<svg xmlns="http://www.w3.org/2000/svg" width="297.056" height="71.783" viewBox="0 0 297.056 71.783">
  <g id="_8" data-name="8" transform="translate(0)">
    <g id="Group_9348" data-name="Group 9348" transform="translate(0 0)">
      <path id="Path_17981" data-name="Path 17981" d="M-332.714,4346.012c2.224-7.33,4.463-14.655,6.652-21.994a1.373,1.373,0,0,1,1.586-1.2c2.668.042,2.668-.008,1.807,2.589-2.686,8.1-5.449,16.18-8,24.323-.614,1.959-1.9,1.313-3.089,1.49-1.223.184-1.536-.489-1.834-1.487-1.992-6.66-4.039-13.306-6.07-19.954-.176-.579-.368-1.151-.685-2.139-1.25,3.976-2.378,7.547-3.5,11.124-1.175,3.754-2.37,7.5-3.49,11.277a1.4,1.4,0,0,1-1.616,1.187c-2.605-.017-2.6.025-3.426-2.477-2.692-8.149-5.359-16.309-8.11-24.438-.453-1.34-.111-1.535,1.142-1.493,2.4.08,2.4.021,3.075,2.255q3.115,10.266,6.239,20.524c.114.376.275.737.526,1.4.6-1.93,1.116-3.576,1.614-5.228,1.77-5.871,3.613-11.722,5.251-17.63.5-1.789,1.672-1.158,2.719-1.306,1.1-.156,1.6.25,1.918,1.357,2.105,7.262,4.293,14.5,6.461,21.744a1.47,1.47,0,0,0,.264.374C-332.912,4346.544-332.855,4346.2-332.714,4346.012Z" transform="translate(505.17 -4301.29)" fill="#383838"/>
      <path id="Path_17982" data-name="Path 17982" d="M-752.469,4363.91a73.178,73.178,0,0,1-6.68-3.632c-.055-1.169.837-1.819,1.516-2.5a54.408,54.408,0,0,1,4.957-4.785c2.013-1.579,3.4-3.809,5.29-5.532.508-.462.111-1.384.914-1.66,2.175-.139,4.354.068,6.526-.111a1.553,1.553,0,0,0,.5-.526q7.473-11.045,15.292-21.848c1.033.241.4.836.192,1.208a17.4,17.4,0,0,1-2.577,3.413,35.477,35.477,0,0,1,2.665-2.7c1.748-1.646,3.173-3.63,5.08-5.079,1.993-1.514,1.877-3.434,1.49-5.5-.073-.393-.319-.764-.052-1.168l.229-.324c.645-.22.432.47.694.655q.02.554.039,1.111c.349,1.662-.14,3.371.271,5.03l-.011.313a16.627,16.627,0,0,0,.049,4.936,3.638,3.638,0,0,1-1.324,3.874c-3.75,3.536-7.362,7.222-10.983,10.9-4.3,4.359-8.638,8.676-12.973,12.991a84.484,84.484,0,0,1-7.236,7.021,18.7,18.7,0,0,0-2.885,3.522C-751.781,4363.9-752,4364.117-752.469,4363.91Z" transform="translate(779.911 -4294.58)" fill="#1996b3"/>
      <path id="Path_17983" data-name="Path 17983" d="M-797.77,4254.131c2.663-2.284,5.2-1.483,7.689.321a7.1,7.1,0,0,0,1.457.838c1.106.6,1.148.907.193,1.77-2.848,2.57-5.342,5.512-8.133,8.109-4.83,4.5-9.22,9.427-14.139,13.821a10.153,10.153,0,0,0-1.44,1.584c-1.921,2.63-4.583,4.511-6.838,6.8-1.795,1.823-3.407,3.815-5.263,5.569-.474.45-1.127,1.367-1.738.05-.046-3.336-.029-6.67-.01-10,.248-1.093.928-.793,1.175-.167.327.83.576.438.922.151a6.346,6.346,0,0,0,.874-.859c3.332-4.083,7.487-7.357,11.051-11.224a39.249,39.249,0,0,1,5.459-5.335,23.389,23.389,0,0,0,3.229-3.467c1.714-1.895,3.756-3.448,5.542-5.273a8.68,8.68,0,0,0,1.732-2.06c-.42.052-.528.343-.711.515-.574.541-1.2.948-1.811.142C-799.216,4254.509-797.975,4254.6-797.77,4254.131Z" transform="translate(826.244 -4252.73)" fill="#11acb3"/>
      <path id="Path_17984" data-name="Path 17984" d="M-520.769,4350.854c-2.258.78-3.517.422-4.783-1.334q-7-9.706-14-19.4c-.168-.232-.257-.566-.647-.624-.374.375-.165.856-.166,1.275-.017,6.343-.037,12.684.013,19.026.008,1.082-.3,1.405-1.376,1.365-2.85-.108-2.305.314-2.364-2.34-.013-.613,0-1.228,0-1.841,0-7.62.02-15.241-.024-22.86-.006-1.055.258-1.31,1.336-1.394a3.988,3.988,0,0,1,3.991,2.031c4.423,6.328,9,12.551,13.522,18.8.226.313.343.756.839.84.363-.453.164-.981.165-1.462.017-6.137.052-12.274-.018-18.411-.016-1.362.28-2.064,1.737-1.737.609.137,1.4-.468,1.827.428-.284.3-.182.675-.183,1.021q-.008,12.861,0,25.725A1.539,1.539,0,0,0-520.769,4350.854Z" transform="translate(630.903 -4301.221)" fill="#383838"/>
      <path id="Path_17985" data-name="Path 17985" d="M-737.387,4388.168a5.558,5.558,0,0,0,1.872-2.117c1.009-1.71,2.689-2.628,3.9-4.046,2.672-3.123,5.8-5.8,8.645-8.76,2.594-2.7,5.3-5.328,8.015-7.934,4.193-4.032,8.209-8.248,12.392-12.291,1.012-.977,1.864-1.819,1.482-3.324a1.88,1.88,0,0,1,.085-1.567,54.4,54.4,0,0,1,.176,8.377,46.512,46.512,0,0,1-.169,7.769c-.847-1.016-.326-2.228-.478-3.343a2.478,2.478,0,0,1,.255-1.075c.054-2.107.008-4.216.019-6.326.008,1.935-.011,3.868,0,5.8a2.887,2.887,0,0,1-1.137,2.094c-4.042,3.967-7.8,8.221-12.08,11.951-1.338,1.166-2.369,2.667-3.658,3.912q-5.066,4.892-9.958,9.959c-.324.333-1.072.668-.2,1.229a20.746,20.746,0,0,1-3.759,1.953,1.326,1.326,0,0,1-1.308.032A34.137,34.137,0,0,1-737.387,4388.168Z" transform="translate(764.83 -4318.838)" fill="#1c92b3"/>
      <path id="Path_17986" data-name="Path 17986" d="M-211.485,4350.624a14.888,14.888,0,0,1-9.042-3.636.937.937,0,0,1-.267-1.435,7.408,7.408,0,0,0,.684-1.369c.342-.9.659-1.011,1.477-.323a12.9,12.9,0,0,0,9.146,3.3,9.076,9.076,0,0,0,1.067-.107c2.443-.409,4-1.743,4.216-3.606.237-2.015-.891-3.667-3.3-4.588-2.29-.872-4.653-1.554-6.939-2.437-3.7-1.431-5.336-3.884-5.112-7.464.2-3.2,2.352-5.663,5.927-6.577a16.378,16.378,0,0,1,11.887,1.506c.929.478,1.071.952.6,1.9-1.028,2.081-.969,2.1-2.991,1.15a12.731,12.731,0,0,0-7.591-1.282c-2.08.338-3.4,1.45-3.668,2.988-.284,1.627.586,3.173,2.47,4.186a37.562,37.562,0,0,0,5.442,2.054c1.012.355,2.03.7,3.005,1.146a6.706,6.706,0,0,1,4.36,5.809,7.187,7.187,0,0,1-3.279,7.125,9.318,9.318,0,0,1-5.629,1.667A6.383,6.383,0,0,0-211.485,4350.624Z" transform="translate(407.005 -4300.637)" fill="#383838"/>
      <path id="Path_17987" data-name="Path 17987" d="M-432.68,4351.21c-2.814,0-5.628-.024-8.442.015-.919.013-1.364-.141-1.359-1.244q.07-12.97.006-25.939c0-.954.3-1.215,1.222-1.209,5.576.036,11.154.078,16.729-.021,1.545-.028,1.321.82,1.3,1.731-.02.872.315,1.811-1.268,1.77-4.244-.108-8.493.009-12.738-.066-1.225-.021-1.6.326-1.539,1.546.1,1.989.1,3.993,0,5.983-.058,1.2.381,1.464,1.5,1.444,3.683-.06,7.37.064,11.049-.064,1.567-.054,1.393.774,1.416,1.777.025,1.065.057,1.8-1.455,1.749-3.731-.121-7.469-.01-11.2-.059-1-.014-1.334.282-1.3,1.3.074,2.2.08,4.4,0,6.6-.04,1.076.389,1.276,1.343,1.269,4.451-.039,8.9.06,13.352-.057,1.645-.043,1.316.908,1.364,1.841.052,1.005.055,1.733-1.381,1.67C-426.946,4351.124-429.815,4351.21-432.68,4351.21Z" transform="translate(560.47 -4301.293)" fill="#383838"/>
      <path id="Path_17988" data-name="Path 17988" d="M-825.736,4297.351c1.273-.351,1.964-1.444,2.74-2.336a73.621,73.621,0,0,1,7.565-7.554c.994-.856,1.747-1.985,2.677-2.923,3.332-3.368,6.693-6.708,10.043-10.057q6.04-6.042,12.08-12.08c.108-.108.212-.223.326-.325.718-.642,1.851-1.171,2.059-1.95.3-1.119-1.578-.787-1.869-1.786a29.255,29.255,0,0,1,5.216,2.779c.863.576.414,1.149-.063,1.628-2.9,2.911-5.5,6.122-8.725,8.7a26.852,26.852,0,0,0-4.631,5.564c-1.23.2-2.476-.035-3.706.14a.867.867,0,0,0-.356.283l-6.111,8.585c-.3.1-.463-.329-.952.092-3.594,3.1-6.792,6.587-10.115,9.959a61.547,61.547,0,0,0-5.581,5.651c-.274.361-.709.57-.747-.222C-825.675,4300.119-826.489,4298.707-825.736,4297.351Z" transform="translate(826.279 -4256.617)" fill="#15aab4"/>
      <path id="Path_17989" data-name="Path 17989" d="M-87.574,4375.421a6.181,6.181,0,0,1,1.282,5.563c-.348-.506-.108-1.074-.135-1.275.059.2-.25.773.137,1.275-.247,3.11-2.609,5.434-6.426,6.29a11.437,11.437,0,0,1-1.5.143c-4.427.274-8.859.063-13.288.1-.652,0-1.435.377-1.976-.359-.037-3.678-.05-7.357.006-11.035,1.752-1.056,3.642-.522,5.475-.4.557.037.557.785.577,1.288.053,1.325.021,2.652.023,3.978,0,.856.34,1.378,1.255,1.357a54.837,54.837,0,0,0,6.1-.119,9.2,9.2,0,0,0,1.516-.7,2.79,2.79,0,0,0,1.376-3.724c-.175-.465-.531-.881-.354-1.435a1.657,1.657,0,0,1,1.7-.76C-90.386,4375.622-88.98,4375.525-87.574,4375.421Z" transform="translate(329.731 -4337.75)" fill="#15a2bf"/>
      <path id="Path_17990" data-name="Path 17990" d="M-797.453,4256.882c.111.509-1.253.566-.41,1.274.692.583.949-.2,1.352-.5s.453-1.337,1.171-.806c.769.568-.129,1.161-.432,1.5a40.263,40.263,0,0,1-3.787,3.74,31.913,31.913,0,0,0-3.8,3.756,21.008,21.008,0,0,1-2.388,2.563c-2.629,2.242-4.91,4.817-7.294,7.3-1.337,1.391-2.866,2.6-4.225,3.968-2.006,2.024-3.925,4.134-5.908,6.182-1.044,1.08-1.052,1.047-1.576-.3-.072-.186-.417-.266-.635-.395a49.534,49.534,0,0,1-.153-6.022c.787-.28.8,1.052,1.6.563a2.947,2.947,0,0,0,1.082-1.437c.745-1.625,2.422-2.293,3.636-3.434,2.116-1.988,4.192-4,6.109-6.186,1.127-1.288,2.589-2.259,3.618-3.689a4.276,4.276,0,0,0,.951-2A110.559,110.559,0,0,1-797.453,4256.882Z" transform="translate(825.927 -4255.482)" fill="#13afb3"/>
      <path id="Path_17991" data-name="Path 17991" d="M-87.611,4350.389c-1.134,1.156-2.57.395-3.854.6-.7.114-1.561-.264-1.977.678a34.1,34.1,0,0,0-7.906-.515c-1.611.042-1.72.145-1.743,1.772-.013.869.024,1.741-.006,2.608-.035,1.061.477,1.461,1.489,1.45,1.381-.014,2.762-.02,4.143.008a2.549,2.549,0,0,1,1.89.43c-1.343.69-2.78.287-4.167.309-4.123.065-4.123.023-4.123-4.1,0-2.639,0-2.639-2.621-2.639h-2.9c-.347-3.052-.053-6.116-.15-9.171-.022-.7.388-.874.973-.872,1.456.006,2.914.307,4.156-.975.5-.513.837.3.9.792a18.9,18.9,0,0,1,.058,3.218c-.038,1.146.371,1.758,1.594,1.669,1.978-.146,3.983.3,5.937-.277a7.135,7.135,0,0,0,2.128-1.932c.485-.625.254-1.314.173-1.99a1.09,1.09,0,0,1,.082-.44c.981-.563,1.932.137,2.918.079,1.195-.072,2.368.076,2.565-1.562.025-.206.259-.279.483-.213.732,3.886-.506,6.548-3.971,8.221C-90.018,4348.324-88.346,4348.76-87.611,4350.389Z" transform="translate(329.769 -4312.718)" fill="#18a4bb"/>
      <path id="Path_17992" data-name="Path 17992" d="M-765.528,4412.567c.547.777.074,1.256-.43,1.836-2.9,3.342-6.252,6.227-9.378,9.339a20.456,20.456,0,0,0-2.517,3.042l-8.29-4.614c.412-1.169,1.572-1.6,2.393-2.349a81.063,81.063,0,0,0,6.687-6.723,18.408,18.408,0,0,1,4.565-4c.941.538.409,1.517.678,2.256a1.062,1.062,0,0,0,.191.325c.088.089.18.177.275.258q5.948.016,11.9.032a1.992,1.992,0,0,0,1.3-.3l-.008.593a58.957,58.957,0,0,1-7.177.138c-1.882.037-3.767.048-5.407-.012C-769.175,4412.585-767.334,4412.2-765.528,4412.567Z" transform="translate(798.616 -4361.088)" fill="#1a9bb3"/>
      <path id="Path_17993" data-name="Path 17993" d="M-740.172,4338.483q4.506-6.316,9.015-12.63a4.946,4.946,0,0,1,.519-.546c1.049.212.741,1.084.752,1.708.064,3.851-.018,7.7.053,11.548a1.781,1.781,0,0,0,.157.461c.086.132.172.267.261.4l-9.766,13.561c-1.035-.242-.725-1.112-.733-1.741-.047-3.463-.019-6.927-.023-10.391a13.212,13.212,0,0,0-.067-1.83C-740.059,4338.843-740.115,4338.663-740.172,4338.483Z" transform="translate(766.76 -4303.022)" fill="#9ed5dc"/>
      <path id="Path_17994" data-name="Path 17994" d="M-.1,4328.033c-1.282.682-2.655.158-3.98.288-1.36.135-3.116-.554-4,.267-.972.9-.31,2.7-.321,4.1q-.067,8.647.007,17.3c.009,1.069-.3,1.494-1.381,1.372-1.6-.182-3.24.314-4.819-.27,1-.708,2.145-.48,3.244-.5,2.156-.035,2.165-.032,2.181-2.236.019-2.738-.046-5.476.032-8.212-.026-2.857-.033-5.715,0-8.571.014-1.075-.325-1.541-1.427-1.274-.2.047.046-.024-.15.021-.971.219-2.249-.549-2.873.309-.556.766-.151,1.981-.168,3-.036,2.092.021,4.185-.017,6.28.1,3.059.068,6.118.014,9.173-.011.631.28,1.609-.92,1.66.014-7.05.012-14.1.061-21.152.007-1.049-.412-1.293-1.367-1.266-1.991.055-3.987-.03-5.977.037-.966.031-1.186-.32-1.2-1.233-.069-4.121-.1-4.121,3.928-4.121q8.584,0,17.168.007c.555,0,1.11.084,1.664.132C.029,4324.75-.536,4326.421-.1,4328.033Z" transform="translate(269.906 -4301.424)" fill="#1ba6b9"/>
      <path id="Path_17995" data-name="Path 17995" d="M61,4330.657c2.342-7.094,11.042-11.014,18.55-8.357a16.055,16.055,0,0,1,5.287,3.04c.669.586.9,1.074.158,1.728a2.813,2.813,0,0,0-.3.353c-.807.99-1.441,2.462-2.471,2.833-1.006.361-1.8-1.272-2.8-1.895-3.384-2.1-8.754-2.362-12.25,3.3-1.75.7-3.551.3-5.332.223C61.126,4331.852,61.1,4331.2,61,4330.657Z" transform="translate(211.572 -4300.361)" fill="#1aa5b9"/>
      <path id="Path_17996" data-name="Path 17996" d="M-710.133,4414.745l-1.138.162c-.009-.7.493-1.07.9-1.475q4.208-4.219,8.425-8.43,7.25-7.249,14.5-14.5c1.424-1.428,2.806-2.9,4.207-4.353.074-.135.16-.149.258-.023l.018.97c-.284,1.45-.1,2.928-.247,4.391a2.943,2.943,0,0,1-1.027,2.1c-2.85,2.475-5.416,5.231-8.017,7.965-1.819,1.911-3.857,3.627-5.7,5.533-.4.416-1.023.741-.9,1.491Q-704.357,4411.913-710.133,4414.745Z" transform="translate(746.732 -4345.105)" fill="#188fb3"/>
      <path id="Path_17997" data-name="Path 17997" d="M-95.759,4334.143a1.88,1.88,0,0,1-1.642.629c-1.89-.008-3.782-.049-5.67.016-1.026.037-1.307-.354-1.3-1.334a21.391,21.391,0,0,0-.2-5.007c-.856,2.5-2.7,1.765-4.085,1.628-1.228-.121-1.233.292-1.225,1.178.026,2.81.011,5.62.011,8.43q0,5.525,0,11.051c-.1.142-.208.15-.311,0q-.033-13.339-.077-26.675c0-.775.222-1.1,1.041-1.089,4.5.052,8.995.035,13.491.106a9.613,9.613,0,0,1,4.952,1.445,5.029,5.029,0,0,1,2.728,3.487c-.873,2.177-.873,2.17-3.526,2.161a3.388,3.388,0,0,1-1.768-.326c-.4-.231-.539.015-.613.357-.959-.157-1.405-1.148-2.32-1.4-2.163-.6-4.357-.313-6.54-.257-.658.019-.747.6-.763,1.134-.028.969.02,1.94-.017,2.908-.041,1.068.476,1.457,1.485,1.432,1.632-.04,3.265.063,4.9-.072C-96.72,4333.9-96.2,4333.752-95.759,4334.143Z" transform="translate(330.258 -4301.404)" fill="#1aa5b9"/>
      <path id="Path_17998" data-name="Path 17998" d="M66.966,4377.375c1.288,3.225,3.326,5.614,6.953,6.223a9.068,9.068,0,0,0,7.5-2.353c.85-.7,1.361-.787,2.04.152a20.409,20.409,0,0,0,2.04,2.286c.489.5.565.854,0,1.379-8.172,7.6-19.76,4.71-23.636-3.628a4.3,4.3,0,0,1-.178-.576c-.206-.521-.063-.716.531-.737,1.226-.044,2.451-.1,3.677-.071.871.023,1.278-.156.8-1.132C66.443,4378.418,65.918,4377.711,66.966,4377.375Z" transform="translate(211.162 -4339.104)" fill="#14a2bf"/>
      <path id="Path_17999" data-name="Path 17999" d="M-777.557,4383.069c-3.893,3.473-7.018,7.721-11.11,11a13.845,13.845,0,0,1-2.444,1.982c-2.732-1.373-2.74-1.376-1.013-3.865q6.761-9.739,13.535-19.468c.317-.457.687-.877,1.031-1.313a1.434,1.434,0,0,1,.687,1.288,63.6,63.6,0,0,1-.333,9.718A1.128,1.128,0,0,1-777.557,4383.069Z" transform="translate(803.583 -4334.966)" fill="#1ba0b4"/>
      <path id="Path_18000" data-name="Path 18000" d="M-691.08,4286.038c2.911,1.349,2.911,1.35,1.151,3.887q-6.408,9.232-12.82,18.46c-.2.29-.44.552-.661.827a1.123,1.123,0,0,0-.539.258c-.344.253-.369,1-.947.815s-.512-.833-.508-1.325c.026-3.106-.145-6.215.087-9.317a54.038,54.038,0,0,1,5.15-5.193,41.467,41.467,0,0,0,3.951-4.244,8.82,8.82,0,0,1,1.9-1.767,6.013,6.013,0,0,0,2.1-1.967C-691.969,4286.038-691.617,4285.77-691.08,4286.038Z" transform="translate(742.692 -4275.737)" fill="#1ba1b4"/>
      <path id="Path_18001" data-name="Path 18001" d="M-809.383,4277.069a1.122,1.122,0,0,1-.064,1.657c-2.3,2.822-5.071,5.188-7.505,7.882a21.761,21.761,0,0,1-4.871,4.238,3.117,3.117,0,0,0-1.7,2.229c-.12.849-.993,1.169-1.653,1.455-1.03.447-.462-.863-1.043-1.105v5.853q0,5.526,0,11.052,0,2.3,0,4.6c.824,1.047.238,2.282.463,3.41-.095,1.151.35,2.382-.5,3.422a80.305,80.305,0,0,1-.443-10.386c-.192-6.9.111-13.8.189-20.7a5.56,5.56,0,0,1,3-5.3C-818.814,4282.588-814.226,4279.613-809.383,4277.069Z" transform="translate(826.766 -4269.596)" fill="#18b2b3"/>
      <path id="Path_18002" data-name="Path 18002" d="M-735.321,4283.054a.915.915,0,0,1,.128-1.133,40.332,40.332,0,0,1,5.539-5.86c2.782-2.231,4.909-5.133,7.505-7.562.4-.373.22-.732.03-1.1a30.291,30.291,0,0,1,4.917,2.749c.714.529.267,1.014-.127,1.39a41.711,41.711,0,0,1-3.646,3.694c-2.74,2.019-4.658,4.844-7.082,7.17-.4.385-.667.922-1.319.95-1.509.031-3.015.017-4.521.008C-734.385,4283.35-734.913,4283.467-735.321,4283.054Z" transform="translate(763.497 -4262.891)" fill="#18a7b4"/>
      <path id="Path_18003" data-name="Path 18003" d="M-714,4289.256a5.11,5.11,0,0,1,.719-1.151c2.634-2.43,4.674-5.444,7.656-7.552a25.226,25.226,0,0,0,3.25-3.378c.28-.291.143-.548.047-.832a34.479,34.479,0,0,1,5.317,3.05c-1.493,1.748-3.593,2.836-5.024,4.654-2.455,3.118-5.589,5.569-8.325,8.411-.12.125-.376.119-.569.175-.643-.668-.247-1.561-.5-2.313-.034-.062-.066-.127-.1-.188s-.073-.123-.109-.183a.869.869,0,0,0-.282-.312C-712.591,4289.382-713.392,4289.845-714,4289.256Z" transform="translate(748.624 -4269.093)" fill="#1aa5b4"/>
      <path id="Path_18004" data-name="Path 18004" d="M-672.128,4410.961c-.792-.114-.654-.5-.232-.9,1.847-1.753,3.541-3.657,5.472-5.333,1.374-1.19,2.5-2.667,3.808-3.938a65.827,65.827,0,0,1,5.519-5.277c1.239-.956.687-2.549,1.028-3.833.19-.715-.255-1.529.292-2.208q.038,1.727.077,3.453-.027,1.488-.053,2.974c-.4,1.246.068,2.552-.269,3.8a3.383,3.383,0,0,1-1.725,2.94c-4.049,2.7-8.244,5.15-12.521,7.465C-671.212,4410.366-671.664,4410.674-672.128,4410.961Z" transform="translate(720.004 -4347.488)" fill="#178db3"/>
      <path id="Path_18005" data-name="Path 18005" d="M64.156,4359.376c-.773.909.142,1.516.489,2.121.474.831.21.959-.551.958-1.61,0-3.221.054-4.828-.009-.454-.017-.31.235-.391.412a14.325,14.325,0,0,1-.27-11.458,1.579,1.579,0,0,0,1.656.949c1.5-.072,3.015.028,4.523.055A11.28,11.28,0,0,0,64.156,4359.376Z" transform="translate(213.972 -4321.105)" fill="#17a3bc"/>
      <path id="Path_18006" data-name="Path 18006" d="M10.19,4377.216c.008,3.258-.017,6.52.043,9.777.019,1.03-.365,1.321-1.337,1.286-1.525-.054-3.055,0-4.582.012-.243-.071-.267-.188-.08-.354.7-.317.442-.955.445-1.466.023-3.188.012-6.376.012-9.566C6.539,4376.734,8.4,4376.385,10.19,4377.216Z" transform="translate(250.998 -4338.625)" fill="#15a2bf"/>
      <path id="Path_18007" data-name="Path 18007" d="M-824.984,4366.908q0-1.687-.006-3.373c1.642-2.355,4-4.039,5.866-6.146,2.6-2.932,5.764-5.289,8.2-8.367a12.556,12.556,0,0,1,2.18-1.646c.528-.434.689.065,1,.219-2.525,3.88-5.2,7.66-7.967,11.369-1.135-.21-.158-.862-.307-1.432-2.1,2.014-4.446,3.674-6.073,6.06C-822.931,4364.818-824.044,4365.784-824.984,4366.908Z" transform="translate(825.536 -4318.197)" fill="#16a9b4"/>
      <path id="Path_18008" data-name="Path 18008" d="M-825.13,4389.252c.921-2.187,2.73-3.729,4.211-5.467a38.069,38.069,0,0,1,3.822-3.641,2.6,2.6,0,0,1,1.414-.7c.584.748-1.049,1.14-.179,1.86l-9.028,13.131a3.055,3.055,0,0,1-.286-1.728Q-825.153,4390.982-825.13,4389.252Z" transform="translate(825.681 -4340.541)" fill="#18a8b4"/>
      <path id="Path_18009" data-name="Path 18009" d="M-645.809,4314.318c.867,1.446.59,3.047.625,4.606a1.288,1.288,0,0,1-.477,1.049q-3.977,3.78-7.715,7.8a8.667,8.667,0,0,1-2.526,1.893c1.036-1.467,2.089-2.921,3.1-4.407.207-.306.863-.622.2-1.116Z" transform="translate(708.363 -4295.408)" fill="#1b99b4"/>
      <path id="Path_18010" data-name="Path 18010" d="M-468.765,4352.008c-.447-.411-.28-.953-.281-1.443q-.014-12.387,0-24.777c0-.486-.171-1.037.329-1.417.026,7.538.067,15.077.067,22.615A29.729,29.729,0,0,1-468.765,4352.008Z" transform="translate(578.9 -4302.375)" fill="#fff"/>
      <path id="Path_18011" data-name="Path 18011" d="M-706,4320.4c.623.863.172,1.846.311,2.762v10.729c.858.247.6-1.424,1.587-.792l-1.591,2.344c-.718-.088-.7-.678-.707-1.156q-.076-6.294,0-12.586A2.083,2.083,0,0,1-706,4320.4Z" transform="translate(743.382 -4299.625)" fill="#169fb2"/>
      <path id="Path_18012" data-name="Path 18012" d="M-742,4381.73c.1-3.045.2-6.089.312-9.134a7.376,7.376,0,0,0-.312-2.533l.33-.593c.7.061.571.617.575,1.034.035,4.378,0,8.759.022,13.137a1.334,1.334,0,0,1-.3.848C-742.167,4383.7-741.226,4382.521-742,4381.73Z" transform="translate(768.026 -4333.627)" fill="#169db2"/>
      <path id="Path_18013" data-name="Path 18013" d="M-706.439,4320.373c0,4.486-.007,8.972.011,13.458,0,.533-.216,1.135.3,1.583q-.173.292-.345.581l-.1-.014-.1.012c-.463-.386-.372-.925-.374-1.426-.022-4.195.024-8.391-.028-12.585a3.766,3.766,0,0,1,.35-1.623C-706.628,4320.364-706.534,4320.37-706.439,4320.373Z" transform="translate(743.823 -4299.595)" fill="#42b1c0"/>
      <path id="Path_18014" data-name="Path 18014" d="M-740.629,4383.627c0-4.476,0-8.953-.024-13.431,0-.531.219-1.129-.272-1.586l.231-.382.364.053a35.027,35.027,0,0,1,.135,5.47c.049,2.951-.02,5.9.032,8.858a1.7,1.7,0,0,1-.179,1.031A2.578,2.578,0,0,1-740.629,4383.627Z" transform="translate(767.281 -4332.766)" fill="#63bdca"/>
      <path id="Path_18015" data-name="Path 18015" d="M-739.022,4383.758q.005-7.677.011-15.357c.495.453.291,1.049.293,1.584.017,3.763,0,7.526.018,11.288,0,.533-.2,1.134.316,1.575l-.315.889Z" transform="translate(765.963 -4332.886)" fill="#abdae1"/>
      <path id="Path_18016" data-name="Path 18016" d="M-708.472,4337.439c-.5-.453-.292-1.051-.294-1.586-.017-3.667,0-7.333-.017-11,0-.532.2-1.135-.335-1.566a1.088,1.088,0,0,1,.649-.9,59.436,59.436,0,0,1,.13,7.752A51.6,51.6,0,0,1-708.472,4337.439Z" transform="translate(745.241 -4301.003)" fill="#a7d8de"/>
      <path id="Path_18017" data-name="Path 18017" d="M-707.067,4335.886q0-7.526,0-15.049-.014-.289-.027-.58a.234.234,0,0,1,.349-.053l.006.01q.026,7.816.052,15.633C-706.811,4335.86-706.939,4335.872-707.067,4335.886Z" transform="translate(743.836 -4299.45)" fill="#96d1d9"/>
      <path id="Path_18018" data-name="Path 18018" d="M-110.016,4413.4h.311c.45.5,1.047.294,1.58.3,4.52.025,9.039.03,13.559.04a13.6,13.6,0,0,1-4.087.246q-5.042.043-10.085-.008C-109.2,4413.968-109.935,4414.339-110.016,4413.4Z" transform="translate(330.084 -4364.067)" fill="#18a4bb"/>
      <path id="Path_18019" data-name="Path 18019" d="M-735.782,4319.253l-.349.053-12.848,0-.019-.343a36.573,36.573,0,0,1,6.065-.131,53.635,53.635,0,0,1,7.136.121C-735.791,4319.057-735.786,4319.155-735.782,4319.253Z" transform="translate(772.876 -4298.498)" fill="#42b1c0"/>
      <path id="Path_18020" data-name="Path 18020" d="M-619.8,4340.013q-.042.785-.085,1.568a9.864,9.864,0,0,1,.028-5.165Z" transform="translate(683.633 -4310.721)" fill="#1091af"/>
      <path id="Path_18021" data-name="Path 18021" d="M-619.79,4324.045c-.642-1.647-.17-3.354-.271-5.03A20.852,20.852,0,0,1-619.79,4324.045Z" transform="translate(683.578 -4298.664)" fill="#1b99b4"/>
      <path id="Path_18022" data-name="Path 18022" d="M51.222,4328.346c-.633-1.6-.139-3.268-.3-4.895C51.756,4325.039,51.171,4326.71,51.222,4328.346Z" transform="translate(218.582 -4301.738)" fill="#099fb4"/>
      <path id="Path_18023" data-name="Path 18023" d="M-620.062,4414.207c.1-1.267-.372-2.574.269-3.8A11.8,11.8,0,0,1-620.062,4414.207Z" transform="translate(683.579 -4361.994)" fill="#188fb3"/>
      <path id="Path_18024" data-name="Path 18024" d="M-189.967,4414.633a2.085,2.085,0,0,1,2.461,0A5.236,5.236,0,0,1-189.967,4414.633Z" transform="translate(385.487 -4364.646)" fill="#fff"/>
      <path id="Path_18025" data-name="Path 18025" d="M-621.59,4312.89l-.694-.655c.107-.219.231-.572.494-.418C-621.4,4312.05-621.566,4312.511-621.59,4312.89Z" transform="translate(685.067 -4293.649)" fill="#1b99b4"/>
      <path id="Path_18026" data-name="Path 18026" d="M-732.04,4419.708h-5.777v-.307h13.145c-1.244.655-2.577.2-3.866.29C-729.7,4419.77-730.872,4419.708-732.04,4419.708Z" transform="translate(765.128 -4368.228)" fill="#1396b1"/>
      <path id="Path_18027" data-name="Path 18027" d="M-619.736,4371.307a1.479,1.479,0,0,1-.258.023v-6.67l.258,0Z" transform="translate(683.48 -4330.289)" fill="#0b8bad"/>
      <path id="Path_18028" data-name="Path 18028" d="M-421.447,4413.91h-18.216v-.151h18.275Z" transform="translate(558.518 -4364.317)" fill="#fff"/>
      <path id="Path_18029" data-name="Path 18029" d="M-428.958,4364.4h11.1c2.3,0,2.3,0,1.94,2.444-.26-.245-.181-.574-.15-.853.115-1.014-.322-1.317-1.312-1.3-3.361.048-6.724.019-10.086.019h-1.492Z" transform="translate(551.099 -4330.113)" fill="#fff"/>
      <path id="Path_18030" data-name="Path 18030" d="M-428.805,4405.54h14.841l0,.153h-14.9Z" transform="translate(551.035 -4358.622)" fill="#fff"/>
      <path id="Path_18031" data-name="Path 18031" d="M-428.735,4332.635h14.33v.142h-14.341Z" transform="translate(550.952 -4308.102)" fill="#fff"/>
      <path id="Path_18032" data-name="Path 18032" d="M-431.737,4383.947v-8.5h.148v8.516Z" transform="translate(553.025 -4337.767)" fill="#fff"/>
      <ellipse id="Ellipse_5180" data-name="Ellipse 5180" cx="0.082" cy="5.576" rx="0.082" ry="5.576" transform="translate(121.281 23.769)" fill="#fff"/>
      <path id="Path_18033" data-name="Path 18033" d="M-735.8,4318.614l-13.2.01c1.393-.653,2.869-.153,4.3-.31h6.447C-737.438,4318.447-736.555,4318.015-735.8,4318.614Z" transform="translate(772.876 -4298.152)" fill="#11a4b2"/>
      <path id="Path_18034" data-name="Path 18034" d="M-34.658,4389.366c-.578-.553-.285-1.208-.111-1.85q.054.924.109,1.849Z" transform="translate(278.1 -4346.132)" fill="#069cb9"/>
      <path id="Path_18035" data-name="Path 18035" d="M-57.25,4348.554q.013-1.06.026-2.121A1.492,1.492,0,0,1-57.25,4348.554Z" transform="translate(293.519 -4317.664)" fill="#1aa5b9"/>
      <path id="Path_18036" data-name="Path 18036" d="M11.5,4354.536c-1.83-.16-3.7.333-5.5-.312V4344.07a7.824,7.824,0,0,0,4.8-.006c1.012-.4.708.425.71.813C11.529,4348.1,11.509,4351.316,11.5,4354.536Z" transform="translate(249.687 -4315.946)" fill="#18a3bc"/>
    </g>
  </g>
</svg>
