<svg xmlns="http://www.w3.org/2000/svg" width="416.244" height="80" viewBox="0 0 416.244 80">
  <g id="_10" data-name="10" transform="translate(-7.772 -15.484)">
    <path id="Path_34254" data-name="Path 34254" d="M156.651,72.959l-1.064-3.191a2.684,2.684,0,0,0-.754-1.391,1.327,1.327,0,0,0-1.32-.045,2.44,2.44,0,0,1-1.435.16,1.23,1.23,0,0,1-.576-.346,3.259,3.259,0,0,1-.461-.6c-.142-.23-.275-.461-.4-.7l-1.435-2.712a7.04,7.04,0,0,0-.647-1.081,2.727,2.727,0,0,0-.683-.674,12.607,12.607,0,0,0,3.864-2.118A9.336,9.336,0,0,0,154.294,57a10.164,10.164,0,0,0,.921-4.352,11.155,11.155,0,0,0-1.569-6.018,10.06,10.06,0,0,0-4.609-3.882,18.5,18.5,0,0,0-7.49-1.374H128.679a2.508,2.508,0,0,0-1.844.647,2.534,2.534,0,0,0-.656,1.852V73.437a2.28,2.28,0,0,0,2.5,2.5h4.36a2.281,2.281,0,0,0,2.5-2.5V63.387h1.648a4.553,4.553,0,0,1,1.684.275,2.856,2.856,0,0,1,1.063.753,5.438,5.438,0,0,1,.735,1.1q.319.625.665,1.329l2.287,4.36a15.987,15.987,0,0,0,2.135,3.093,6.85,6.85,0,0,0,2.429,1.737,8.107,8.107,0,0,0,3.093.541,8.678,8.678,0,0,0,4.255-1.064,3.458,3.458,0,0,0,.824-.5,1.324,1.324,0,0,0,.461-.78,2.326,2.326,0,0,0-.168-1.276ZM135.539,57.112V48.976h5.849a4.759,4.759,0,0,1,2.18.5,3.772,3.772,0,0,1,1.542,1.418,4.274,4.274,0,0,1,.586,2.234,4.026,4.026,0,0,1-.586,2.171,3.667,3.667,0,0,1-1.542,1.347,4.98,4.98,0,0,1-2.18.47Z" transform="translate(-15.965 -3.49)" fill="#116890"/>
    <path id="Path_34255" data-name="Path 34255" d="M182.367,76.576a18.235,18.235,0,0,0,6.647-1.179,14.562,14.562,0,0,0,5.141-3.333,14.749,14.749,0,0,0,3.314-5.176,18.957,18.957,0,0,0,1.17-6.745V43.872a2.6,2.6,0,0,0-.62-1.852,2.45,2.45,0,0,0-1.826-.647h-4.254a2.269,2.269,0,0,0-2.5,2.5v16.8a8.691,8.691,0,0,1-.887,3.98,6.49,6.49,0,0,1-2.463,2.659,7.654,7.654,0,0,1-7.446,0,6.555,6.555,0,0,1-2.464-2.659,8.691,8.691,0,0,1-.886-3.98v-16.8a2.269,2.269,0,0,0-2.5-2.5h-4.36a2.534,2.534,0,0,0-1.87.647,2.564,2.564,0,0,0-.629,1.852V60.144a18.748,18.748,0,0,0,1.188,6.745,14.565,14.565,0,0,0,8.526,8.509,18.654,18.654,0,0,0,6.718,1.179Z" transform="translate(-21.326 -3.491)" fill="#116890"/>
    <path id="Path_34256" data-name="Path 34256" d="M223.33,76.477a20.373,20.373,0,0,0,5.4-.692,14.421,14.421,0,0,0,4.449-2.039A9.833,9.833,0,0,0,236.2,70.4a9.458,9.458,0,0,0,1.117-4.609,10.019,10.019,0,0,0-.762-4.006,8.663,8.663,0,0,0-2.03-2.872,13.213,13.213,0,0,0-2.925-2.021,25.913,25.913,0,0,0-3.447-1.445c-1.206-.408-2.411-.789-3.6-1.143-.656-.2-1.285-.408-1.9-.638a9.948,9.948,0,0,1-1.631-.762,3.809,3.809,0,0,1-1.143-.975,2.144,2.144,0,0,1-.434-1.294,2.028,2.028,0,0,1,.505-1.383,3.149,3.149,0,0,1,1.4-.9,6.455,6.455,0,0,1,2.136-.319,9.264,9.264,0,0,1,2.615.381,10.992,10.992,0,0,1,2.287.957,14.015,14.015,0,0,1,1.906,1.267,2.537,2.537,0,0,0,1.878.621,2.627,2.627,0,0,0,1.632-1.046l1.807-2.233a2.068,2.068,0,0,0,.6-1.835,3.184,3.184,0,0,0-1.188-1.675,16.732,16.732,0,0,0-3.218-1.985,19.109,19.109,0,0,0-3.943-1.347,20.75,20.75,0,0,0-4.538-.5,18.727,18.727,0,0,0-5.442.762,13.143,13.143,0,0,0-4.255,2.136,9.633,9.633,0,0,0-2.765,3.3,9.578,9.578,0,0,0-.319,7.773,8.776,8.776,0,0,0,1.781,2.73,12.5,12.5,0,0,0,2.553,2.056A20.5,20.5,0,0,0,217.87,60.9a32.429,32.429,0,0,0,3.067,1.063c.975.284,1.879.541,2.7.753a18.641,18.641,0,0,1,2.154.709,3.788,3.788,0,0,1,1.435.949,2.124,2.124,0,0,1,.514,1.471,2.085,2.085,0,0,1-.611,1.489,3.948,3.948,0,0,1-1.7.975,8.841,8.841,0,0,1-2.633.354,10.423,10.423,0,0,1-2.934-.47,15.847,15.847,0,0,1-2.96-1.206A14.023,14.023,0,0,1,214.4,65.31a2.265,2.265,0,0,0-1.817-.647,2.886,2.886,0,0,0-1.692,1.073l-1.862,2.233a2.152,2.152,0,0,0-.664,1.826,3.148,3.148,0,0,0,1.09,1.737,16.136,16.136,0,0,0,3.767,2.632,20.471,20.471,0,0,0,4.715,1.7,24.217,24.217,0,0,0,5.4.612Z" transform="translate(-27.042 -3.391)" fill="#116890"/>
    <path id="Path_34257" data-name="Path 34257" d="M250.034,75.938H254.4a2.279,2.279,0,0,0,2.5-2.5V62.484h13.135V73.438a2.537,2.537,0,0,0,.63,1.844,2.419,2.419,0,0,0,1.817.656h4.413a2.457,2.457,0,0,0,1.826-.656,2.575,2.575,0,0,0,.62-1.844V43.871a2.6,2.6,0,0,0-.62-1.852,2.453,2.453,0,0,0-1.826-.647h-4.413a2.415,2.415,0,0,0-1.817.647,2.561,2.561,0,0,0-.63,1.852V54.879H256.894V43.871a2.535,2.535,0,0,0-.656-1.852,2.509,2.509,0,0,0-1.843-.647h-4.361a2.51,2.51,0,0,0-1.844.647,2.538,2.538,0,0,0-.656,1.852V73.438a2.279,2.279,0,0,0,2.5,2.5Z" transform="translate(-32.328 -3.491)" fill="#116890"/>
    <path id="Path_34258" data-name="Path 34258" d="M321.045,74.129l-.372-.957a1.435,1.435,0,0,0-.7-.842,1.316,1.316,0,0,0-1.055.151,3,3,0,0,1-.735.2,1.6,1.6,0,0,1-.541.009,1.8,1.8,0,0,1-1.144-.4,3.817,3.817,0,0,1-.94-1.081,11.841,11.841,0,0,1-.789-1.6l-2.5-5.8A12.211,12.211,0,0,0,311.4,62.1a2.445,2.445,0,0,0-.993-.949,10.834,10.834,0,0,0,6.355-3.261,9.386,9.386,0,0,0,2.206-6.417,10.137,10.137,0,0,0-1.4-5.433,8.851,8.851,0,0,0-4.13-3.457,16.856,16.856,0,0,0-6.754-1.214H295.094a1.451,1.451,0,0,0-1.6,1.6V74.342a1.649,1.649,0,0,0,.39,1.152,1.4,1.4,0,0,0,1.1.443h1.33a1.4,1.4,0,0,0,1.1-.443,1.649,1.649,0,0,0,.39-1.152V61.473h6.541a3.691,3.691,0,0,1,2.056.541,4,4,0,0,1,1.215,1.338,14.073,14.073,0,0,1,.771,1.684l2.711,6.328a13.2,13.2,0,0,0,1.472,2.694,6.483,6.483,0,0,0,2,1.844,5.537,5.537,0,0,0,2.748.674c.239,0,.523-.018.869-.053a6.108,6.108,0,0,0,1.1-.231,4.5,4.5,0,0,0,1.117-.514,1.732,1.732,0,0,0,.7-.62,1.213,1.213,0,0,0-.062-1.028ZM297.807,57.91V45.147h9.785a8.155,8.155,0,0,1,3.767.824,5.717,5.717,0,0,1,2.375,2.251,7,7,0,0,1,0,6.594,5.772,5.772,0,0,1-2.375,2.251,8.042,8.042,0,0,1-3.767.842Z" transform="translate(-38.526 -3.491)" fill="#116890"/>
    <path id="Path_34259" data-name="Path 34259" d="M360.436,74.407,345.493,42.075a2.173,2.173,0,0,0-.505-.709,1.189,1.189,0,0,0-.824-.3h-.372a1.166,1.166,0,0,0-.816.3,1.933,1.933,0,0,0-.46.709l-15.1,32.332a1.11,1.11,0,0,0-.088,1.1,1.124,1.124,0,0,0,.992.39h1.967a1.4,1.4,0,0,0,.745-.177,1.35,1.35,0,0,0,.461-.505,6.93,6.93,0,0,0,.389-.807l2.819-6.168h18.347l2.765,6.168a8.048,8.048,0,0,0,.426.807,1.456,1.456,0,0,0,.478.505,1.4,1.4,0,0,0,.744.177h2.075a1.124,1.124,0,0,0,.992-.39,1.109,1.109,0,0,0-.089-1.1Zm-24.142-9.785,7.6-16.8,7.551,16.8Z" transform="translate(-43.072 -3.449)" fill="#116890"/>
    <path id="Path_34260" data-name="Path 34260" d="M373.677,75.938h11.806a21.308,21.308,0,0,0,7.382-1.241,16.2,16.2,0,0,0,5.673-3.518,15.444,15.444,0,0,0,3.634-5.469,19.155,19.155,0,0,0,1.285-7.108,18.859,18.859,0,0,0-1.285-7.046,15.415,15.415,0,0,0-3.634-5.442,16.163,16.163,0,0,0-5.673-3.5,21.316,21.316,0,0,0-7.382-1.241H373.677a1.451,1.451,0,0,0-1.6,1.6V74.342a1.484,1.484,0,0,0,1.6,1.6Zm2.712-3.776V45.148h9.04a15.923,15.923,0,0,1,5.637.966,12.181,12.181,0,0,1,4.307,2.739,12.036,12.036,0,0,1,2.756,4.254,16.384,16.384,0,0,1,0,11.088,11.994,11.994,0,0,1-2.756,4.263,12.187,12.187,0,0,1-4.307,2.739,15.923,15.923,0,0,1-5.637.966Z" transform="translate(-49.121 -3.491)" fill="#116890"/>
    <path id="Path_34261" data-name="Path 34261" d="M445.229,74.407,430.286,42.075a2.147,2.147,0,0,0-.505-.709,1.185,1.185,0,0,0-.824-.3h-.373a1.165,1.165,0,0,0-.815.3,1.924,1.924,0,0,0-.461.709l-15.1,32.332a.91.91,0,0,0,.9,1.489h1.967a1.4,1.4,0,0,0,.745-.177,1.341,1.341,0,0,0,.46-.505,6.785,6.785,0,0,0,.39-.807l2.819-6.168h18.346l2.766,6.168a8.25,8.25,0,0,0,.425.807,1.464,1.464,0,0,0,.478.505,1.405,1.405,0,0,0,.745.177h2.074a.91.91,0,0,0,.9-1.489Zm-24.142-9.785,7.6-16.8,7.551,16.8Z" transform="translate(-54.505 -3.449)" fill="#116890"/>
    <path id="Path_34262" data-name="Path 34262" d="M484.421,74.129l-.372-.957a1.438,1.438,0,0,0-.7-.842,1.318,1.318,0,0,0-1.056.151,3,3,0,0,1-.735.2,1.6,1.6,0,0,1-.541.009,1.8,1.8,0,0,1-1.143-.4,3.8,3.8,0,0,1-.94-1.081,11.742,11.742,0,0,1-.789-1.6l-2.5-5.8a12.214,12.214,0,0,0-.869-1.711,2.443,2.443,0,0,0-.992-.949,10.829,10.829,0,0,0,6.355-3.261,9.386,9.386,0,0,0,2.207-6.417,10.13,10.13,0,0,0-1.4-5.433,8.849,8.849,0,0,0-4.129-3.457,16.863,16.863,0,0,0-6.754-1.214H458.47a1.45,1.45,0,0,0-1.6,1.6V74.342a1.649,1.649,0,0,0,.39,1.152,1.4,1.4,0,0,0,1.1.443h1.329a1.4,1.4,0,0,0,1.1-.443,1.649,1.649,0,0,0,.39-1.152V61.473h6.541a3.7,3.7,0,0,1,2.056.541,3.99,3.99,0,0,1,1.214,1.338,13.805,13.805,0,0,1,.771,1.684l2.712,6.328a13.159,13.159,0,0,0,1.471,2.694,6.486,6.486,0,0,0,2,1.844,5.534,5.534,0,0,0,2.747.674c.24,0,.523-.018.869-.053a6.1,6.1,0,0,0,1.1-.231,4.5,4.5,0,0,0,1.116-.514,1.736,1.736,0,0,0,.7-.62,1.216,1.216,0,0,0-.062-1.028ZM461.183,57.91V45.147h9.784a8.153,8.153,0,0,1,3.767.824,5.707,5.707,0,0,1,2.375,2.251,7,7,0,0,1,0,6.594,5.762,5.762,0,0,1-2.375,2.251,8.039,8.039,0,0,1-3.767.842Z" transform="translate(-60.554 -3.491)" fill="#116890"/>
    <path id="Path_34263" data-name="Path 34263" d="M59.925,19.7a5.332,5.332,0,0,1,5.086,5.547,5.453,5.453,0,0,1-4.068,5.436v19.08a8.313,8.313,0,0,1,6.8,8.454c0,4.708-3.5,8.526-7.817,8.526a7.624,7.624,0,0,1-6.32-3.509L47.429,67.2l-8.4,5.39a5.989,5.989,0,0,1,.3,1.866A5.332,5.332,0,0,1,34.241,80a5.332,5.332,0,0,1-5.086-5.546,6.034,6.034,0,0,1,.188-1.5L20.377,67.2l-6.221-3.993a7.627,7.627,0,0,1-6.339,3.538C3.5,66.743,0,62.925,0,58.218a8.305,8.305,0,0,1,6.862-8.462V30.7a5.445,5.445,0,0,1-4.131-5.449A5.332,5.332,0,0,1,7.817,19.7a4.836,4.836,0,0,1,3.38,1.4l9.179-5.892L26.787,11.1a9.226,9.226,0,0,1-.363-2.573c0-4.708,3.5-8.526,7.817-8.526s7.817,3.818,7.817,8.526a9.205,9.205,0,0,1-.476,2.936l5.847,3.752,9.141,5.867A4.831,4.831,0,0,1,59.925,19.7Zm-49.9,30.336.057.019,5.5-10.4-5.019-9.743a4.957,4.957,0,0,1-.543.332V50.038Zm3.313,2.146a8.292,8.292,0,0,1,.621.762l6.4-4.027-2.61-5.066-4.41,8.331ZM14.661,54.1a8.847,8.847,0,0,1,.477,1.129h8.47l-2.63-5.1L14.661,54.1Zm.9,5.287q-.042.338-.109.667l6.518,4.183L31.1,70.093c.039-.034.079-.066.118-.1L25.75,59.384ZM12.787,24.071a6.078,6.078,0,0,1,.05,2.065l7.307,4.9,8.67-16.378q-.255-.269-.488-.562L21.97,18.177l-9.183,5.894Zm-.326,3.439a5.624,5.624,0,0,1-.905,1.5l4.768,9.255,3.188-6.022-7.051-4.73Zm10.924,5.7L34,40.333l11.562-7.275L36.835,16.57a7.236,7.236,0,0,1-4.726.16L23.385,33.212Zm25.473-2.227,6.256-3.936a6.062,6.062,0,0,1-.152-3.014l-9.126-5.858-5.691-3.652,8.713,16.46Zm8.923-.134L53.308,39.4l4.473,8.449v-17ZM51.13,43.565l-3.2,6.113,5.545,3.72a8.3,8.3,0,0,1,1.786-2.024L51.13,43.565ZM52.845,54.6,47.3,50.882,45.03,55.225H52.6q.11-.319.242-.625Zm-9.991,4.783L37.527,69.567l8.309-5.333L52.3,60.087q-.071-.347-.116-.7H42.854Zm-21.4-11.157L32.75,41.121l-10-6.711-4.261,8.049,2.972,5.768ZM55.673,28.29l-6.185,3.892,3.087,5.832,4.34-8.3a5.408,5.408,0,0,1-1.242-1.428ZM46.2,34.251l-10.972,6.9,11.625,7.8L50.4,42.179l-4.2-7.928ZM33.976,41.943l-11.9,7.487,2.986,5.8H43.571l2.651-5.068L33.976,41.943Zm-6.77,17.441,5.117,9.931a4.711,4.711,0,0,1,3.87.015l5.2-9.946H27.206Z" transform="translate(7.772 15.484)" fill="#116890" fill-rule="evenodd"/>
  </g>
</svg>
