<svg xmlns="http://www.w3.org/2000/svg" width="381.158" height="53.647" viewBox="0 0 381.158 53.647">
  <g id="_3" data-name="3" transform="translate(0 -0.001)">
    <path id="Path_17900" data-name="Path 17900" d="M-711.316,2546.4v17.7c-.662.03-1.163.072-1.664.072-4.942,0-9.884.036-14.825-.021-1.153-.014-1.512.284-1.507,1.482.047,10.905.027,21.811.027,32.717v1.592c-.531.029-.943.07-1.355.07-4.942,0-9.884-.037-14.824.032-1.189.017-1.507-.332-1.5-1.494.038-10.82.022-21.641.022-32.461v-1.924H-765V2546.4Z" transform="translate(765 -2546.399)" fill="#0a9600"/>
    <path id="Path_17901" data-name="Path 17901" d="M-448.466,2546.4v17.685H-484V2546.4Z" transform="translate(555.835 -2546.399)" fill="#0a9600"/>
    <path id="Path_17902" data-name="Path 17902" d="M663.23,2626.7h-8.02c0-1.964.013-3.784,0-5.6-.025-2.937.016-5.879-.135-8.811-.1-2.036-1.017-2.818-2.748-2.779-1.681.039-2.587.933-2.624,2.941-.076,4.172-.036,8.348-.044,12.522,0,.507,0,1.013,0,1.618h-7.9c-.02-.45-.057-.9-.058-1.355,0-8.859.017-17.72-.029-26.579a1.623,1.623,0,0,1,1.254-1.843c2.193-.785,4.338-1.7,6.671-2.633v10.273a30.154,30.154,0,0,1,4.73-1.542c4.8-.74,8.007,1.787,8.655,6.59.05.37.163.731.247,1.1Z" transform="translate(-282.072 -2581.962)" fill="#383838"/>
    <path id="Path_17903" data-name="Path 17903" d="M-553.919,2652.648v-35.456h17.511c.022.471.062.921.062,1.37,0,4.94.046,9.882-.027,14.82-.019,1.263.27,1.659,1.6,1.652,10.86-.058,21.72-.033,32.58-.033h1.572v17.646Z" transform="translate(607.88 -2599.095)" fill="#0a9600"/>
    <path id="Path_17904" data-name="Path 17904" d="M146.877,2617.44l7.16,3.788c-1.841,3.676-4.435,6.351-8.432,7.441-7.11,1.941-15.195-.451-17.822-9.052a21.519,21.519,0,0,1,.077-13.072,13.682,13.682,0,0,1,4.141-6.324c4.114-3.55,11.926-4.256,16.6-1.486,2.851,1.688,4.223,4.433,5.364,7.473l-7.722,3.019c-.449-.888-.8-1.708-1.258-2.464a4.438,4.438,0,0,0-7.888.259,13.5,13.5,0,0,0-1.152,8.084,13.306,13.306,0,0,0,1.056,3.906,4.632,4.632,0,0,0,7.907,1.119C145.6,2619.344,146.159,2618.431,146.877,2617.44Z" transform="translate(101.176 -2584.092)" fill="#383838"/>
    <path id="Path_17905" data-name="Path 17905" d="M23.505,2597.589l7.76-3.1v10.5a6.78,6.78,0,0,0,.888-.412,9.415,9.415,0,0,1,6.969-1.346,6.389,6.389,0,0,1,5.337,6.336c.259,5.688.07,11.394.07,17.192H36.941v-1.4c0-3.664.011-7.328-.009-10.992a16.214,16.214,0,0,0-.191-2.413,2.385,2.385,0,0,0-2.441-2.306,2.4,2.4,0,0,0-2.819,1.989,7.522,7.522,0,0,0-.221,1.885c-.018,4.384-.009,8.768-.009,13.241H23.505Z" transform="translate(178.068 -2582.194)" fill="#0a9600"/>
    <path id="Path_17906" data-name="Path 17906" d="M333.9,2629.873h7.82c.021.458.058.906.059,1.353,0,3.791-.005,7.582.01,11.372a12.158,12.158,0,0,0,.168,2.158,2.383,2.383,0,0,0,2.605,2.261,2.344,2.344,0,0,0,2.563-2.441c.144-3.742.13-7.49.173-11.236.013-1.135,0-2.271,0-3.468h7.964v23.316H347.41l-.171-1.141a34.085,34.085,0,0,1-4.576,1.541c-4.313.824-7.684-1.535-8.516-5.824a16,16,0,0,1-.31-2.914c-.034-4.685-.021-9.37-.019-14.055C333.818,2630.51,333.869,2630.223,333.9,2629.873Z" transform="translate(-52.914 -2608.534)" fill="#383838"/>
    <path id="Path_17907" data-name="Path 17907" d="M441.325,2628.267h7.751l.161,1.1a33.172,33.172,0,0,1,4.782-1.514c4.293-.7,7.3,1.419,8.278,5.64a12.241,12.241,0,0,1,.385,2.646c.036,5.106.018,10.212.018,15.417h-7.9c-.021-.4-.063-.845-.064-1.291-.005-3.831.006-7.661-.011-11.491a13.051,13.051,0,0,0-.182-2.028,2.61,2.61,0,0,0-5.145-.2,8.659,8.659,0,0,0-.207,1.89c-.017,4.34-.009,8.68-.009,13.119h-7.857Z" transform="translate(-132.941 -2606.934)" fill="#383838"/>
    <path id="Path_17908" data-name="Path 17908" d="M-255.064,2630.43h-8.377c-.023-.52-.064-1.012-.064-1.5,0-6.943-.029-13.885.022-20.827.008-1.143-.333-1.457-1.447-1.42-2.418.08-4.84.025-7.359.025v-7.237c.4-.024.842-.075,1.287-.075,7.751-.005,15.5.017,23.254-.028,1.1-.007,1.524.255,1.458,1.41-.093,1.613-.053,3.237-.013,4.854.021.831-.282,1.107-1.118,1.093-2.5-.047-5.007-.017-7.645-.017Z" transform="translate(398.244 -2585.823)" fill="#0a9600"/>
    <path id="Path_17909" data-name="Path 17909" d="M-153.068,2649.846c-3.847,2.129-7.806,3.2-12.079,2.335a9.253,9.253,0,0,1-7.371-6.668,15.9,15.9,0,0,1,.52-11.706c1.92-4.163,5.63-5.937,11.038-5.465a8.892,8.892,0,0,1,7.848,7.141c.532,2.206.659,4.51,1,6.993h-13.876a3.411,3.411,0,0,0,3.435,3.962,59.248,59.248,0,0,0,6.442-1.05l.058-.448c.48.782.963,1.563,1.44,2.348S-153.648,2648.885-153.068,2649.846Zm-12.976-12.219h6.755c-.436-2.744-1.728-3.92-3.931-3.717A3.288,3.288,0,0,0-166.044,2637.627Z" transform="translate(324.624 -2607.339)" fill="#0a9600"/>
    <path id="Path_17910" data-name="Path 17910" d="M564.349,2633.113l-5.37,4.07c-.43-.613-.8-1.222-1.245-1.76-1.636-1.956-4.182-1.551-5.03.849a11.481,11.481,0,0,0-.135,7.028c.728,2.588,3.3,3.246,5.3,1.42a25.576,25.576,0,0,0,1.763-1.973l4.871,3.794c-2.257,4.375-6.419,6.267-11.778,5.424a9.535,9.535,0,0,1-8.1-8.517,24.422,24.422,0,0,1,.149-7.583c1.182-6.052,6-8.352,11.42-8.059C559.861,2628,562.465,2629.885,564.349,2633.113Z" transform="translate(-209.669 -2606.977)" fill="#383838"/>
    <path id="Path_17911" data-name="Path 17911" d="M-54.742,2633.246l-5.253,3.983a19.646,19.646,0,0,0-1.517-1.993,2.738,2.738,0,0,0-4.651.722,10.2,10.2,0,0,0-.067,8.187,2.924,2.924,0,0,0,4.588,1.216,32.226,32.226,0,0,0,2.526-2.164l4.481,3.5c-1.62,3.662-6.01,5.956-10.088,5.571-7.289-.688-9.681-5.7-9.91-11.132a18.829,18.829,0,0,1,.443-5.052c1.3-5.533,5.519-8.423,11.2-8.05A9.85,9.85,0,0,1-54.742,2633.246Z" transform="translate(251.131 -2607.138)" fill="#0a9600"/>
    <path id="Path_17912" data-name="Path 17912" d="M253.249,2628.227h7.739c.06.476.115.914.185,1.467.683-.442,1.254-.869,1.874-1.2a6.789,6.789,0,0,1,6.021-.232c.316.128.725.692.669.971-.5,2.49-1.085,4.961-1.651,7.452a16.517,16.517,0,0,0-2.449-1.445c-2.481-.932-4.437.334-4.507,2.971-.094,3.532-.039,7.066-.046,10.6,0,.884,0,1.769,0,2.728h-7.835Z" transform="translate(7.055 -2606.893)" fill="#383838"/>
  </g>
</svg>
