<svg xmlns="http://www.w3.org/2000/svg" width="289.41" height="48" viewBox="0 0 289.41 48">
  <g id="Payment_logo" data-name="Payment logo" transform="translate(-1460.09 -23.969)">
    <g id="logo-_-payment-_-maestro" data-name="logo-/-payment-/-maestro" transform="translate(1539.484 29.832)">
      <g id="Group" transform="translate(0.267 6)">
        <rect id="Rectangle" width="10.797" height="18.912" transform="translate(14.067 2.651)" fill="#6d6cbe"/>
        <path id="Shape" d="M15.165,12.138a12.148,12.148,0,0,0,4.6,9.543,11.949,11.949,0,0,1-7.449,2.6A12.138,12.138,0,0,1,12.32,0a11.949,11.949,0,0,1,7.449,2.6,12.148,12.148,0,0,0-4.6,9.543" transform="translate(-0.267)" fill="#ec0114"/>
        <path id="Shape-2" data-name="Shape" d="M35.5,12.138A12.1,12.1,0,0,0,23.45,0,11.953,11.953,0,0,0,16,2.6a12.191,12.191,0,0,1,0,19.086,11.953,11.953,0,0,0,7.45,2.6A12.1,12.1,0,0,0,35.5,12.138" transform="translate(3.465)" fill="#009be0"/>
      </g>
    </g>
    <g id="_62795c5179bcd12c1ad2d872_mc_idcheck" data-name="62795c5179bcd12c1ad2d872_mc_idcheck" transform="translate(1581.446 23.969)">
      <rect id="Rectangle_25545" data-name="Rectangle 25545" width="168.054" height="48" fill="none"/>
      <rect id="Rectangle_25546" data-name="Rectangle 25546" width="10.5" height="18.869" transform="translate(26.165 14.566)" fill="#ff5f00"/>
      <path id="Path_34326" data-name="Path 34326" d="M194.749,282a11.979,11.979,0,0,1,4.583-9.434,12,12,0,1,0,0,18.869A11.979,11.979,0,0,1,194.749,282Z" transform="translate(-167.917 -258)" fill="#eb001b"/>
      <path id="Path_34327" data-name="Path 34327" d="M257.579,282a12,12,0,0,1-19.415,9.434,12,12,0,0,0,0-18.869A12,12,0,0,1,257.579,282Z" transform="translate(-206.749 -258)" fill="#f79e1b"/>
      <path id="Path_34328" data-name="Path 34328" d="M292.492,327.376v-.386h.156v-.079h-.4v.079h.156v.386Zm.77,0v-.466h-.122l-.14.32-.14-.32h-.122v.466h.086v-.351l.131.3h.089l.131-.3v.352Z" transform="translate(-242.807 -295.94)" fill="#f79e1b"/>
      <path id="Path_34329" data-name="Path 34329" d="M188.268,59.611h-.444v-24.3h.444v24.3Z" transform="translate(-125.216 -23.544)"/>
      <path id="Path_34330" data-name="Path 34330" d="M367.477,298.869H366.23V284.558h1.247Zm9.1-14.311a9.712,9.712,0,0,1,3.22.5,6.849,6.849,0,0,1,2.433,1.431,6.274,6.274,0,0,1,1.543,2.254,8.406,8.406,0,0,1,0,5.939,6.273,6.273,0,0,1-1.543,2.254,6.847,6.847,0,0,1-2.433,1.431,9.707,9.707,0,0,1-3.22.5h-5.224V284.558Zm-3.977,1.186v11.94h3.977a8.24,8.24,0,0,0,2.76-.424,5.592,5.592,0,0,0,2.014-1.2,5.007,5.007,0,0,0,1.237-1.881,7.453,7.453,0,0,0,0-4.927,5.052,5.052,0,0,0-1.237-1.886,5.5,5.5,0,0,0-2.014-1.2,8.336,8.336,0,0,0-2.76-.419Zm26.21-1.349a7.658,7.658,0,0,1,1.779.2,7.2,7.2,0,0,1,1.61.588,6.42,6.42,0,0,1,1.36.925,5.671,5.671,0,0,1,1.037,1.227l-1.043.7a5.037,5.037,0,0,0-.874-1.012,5.486,5.486,0,0,0-1.114-.767,5.72,5.72,0,0,0-1.308-.486,6.155,6.155,0,0,0-1.447-.169,6.344,6.344,0,0,0-2.377.439,5.665,5.665,0,0,0-1.911,1.247,5.828,5.828,0,0,0-1.278,1.932,6.919,6.919,0,0,0,0,4.988,5.827,5.827,0,0,0,1.278,1.932,5.663,5.663,0,0,0,1.911,1.247,6.338,6.338,0,0,0,2.377.44,6.275,6.275,0,0,0,1.441-.164,5.562,5.562,0,0,0,1.3-.48,5.477,5.477,0,0,0,1.114-.767,4.92,4.92,0,0,0,.874-1.022l1.022.746a6.064,6.064,0,0,1-1.058,1.206,6.6,6.6,0,0,1-1.349.91,7.01,7.01,0,0,1-1.59.577,7.992,7.992,0,0,1-4.667-.342,7.009,7.009,0,0,1-2.326-1.508,6.915,6.915,0,0,1-1.538-2.31,8.126,8.126,0,0,1,0-5.913,6.907,6.907,0,0,1,1.538-2.315,7.011,7.011,0,0,1,2.326-1.508,7.71,7.71,0,0,1,2.908-.542Zm9.619,6.522a3.677,3.677,0,0,1,.67-.818,3.577,3.577,0,0,1,.833-.567,4.159,4.159,0,0,1,.94-.327,4.577,4.577,0,0,1,.981-.107,4.8,4.8,0,0,1,1.646.271,3.713,3.713,0,0,1,1.283.772,3.38,3.38,0,0,1,.828,1.222,4.265,4.265,0,0,1,.291,1.61v5.9h-1.165v-5.54a3.941,3.941,0,0,0-.2-1.309,2.616,2.616,0,0,0-.6-.986,2.653,2.653,0,0,0-.971-.618,3.712,3.712,0,0,0-1.309-.215,3.432,3.432,0,0,0-1.262.23,3.019,3.019,0,0,0-1.022.654,3.079,3.079,0,0,0-.685,1.012,3.26,3.26,0,0,0-.251,1.293v5.479h-1.165v-14.72h1.165Zm14.4-1.819a4.371,4.371,0,0,1,1.784.363,4.229,4.229,0,0,1,1.421,1.012,4.812,4.812,0,0,1,.946,1.554,5.621,5.621,0,0,1,.358,1.978c0,.089,0,.172,0,.25s-.009.155-.015.23h-8.065a4.136,4.136,0,0,0,.373,1.492,3.523,3.523,0,0,0,.813,1.109,3.426,3.426,0,0,0,1.15.69,4.037,4.037,0,0,0,1.385.235,4.269,4.269,0,0,0,1.81-.368,5.066,5.066,0,0,0,1.441-1l.624.8a5.718,5.718,0,0,1-.935.767,5,5,0,0,1-.971.491,4.792,4.792,0,0,1-1.007.256,7.44,7.44,0,0,1-1.032.072,5.093,5.093,0,0,1-1.942-.363,4.518,4.518,0,0,1-1.533-1.017,4.6,4.6,0,0,1-1-1.564,5.457,5.457,0,0,1-.358-2.014,5.375,5.375,0,0,1,.363-2,4.751,4.751,0,0,1,1-1.574,4.525,4.525,0,0,1,1.513-1.027,4.811,4.811,0,0,1,1.886-.368Zm-.021,1.032a3.5,3.5,0,0,0-1.344.25,3.37,3.37,0,0,0-1.068.7,3.6,3.6,0,0,0-.751,1.058,4.2,4.2,0,0,0-.373,1.349h6.88a4.159,4.159,0,0,0-.338-1.365,3.437,3.437,0,0,0-.721-1.058,3.2,3.2,0,0,0-2.285-.93Zm11.234-1.032a5.094,5.094,0,0,1,1.988.383,4.253,4.253,0,0,1,1.559,1.109l-.757.787a4.181,4.181,0,0,0-1.262-.874,3.79,3.79,0,0,0-1.559-.312,3.684,3.684,0,0,0-1.467.291,3.6,3.6,0,0,0-1.181.808,3.691,3.691,0,0,0-.782,1.227,4.409,4.409,0,0,0,0,3.1,3.583,3.583,0,0,0,1.963,2.024,3.684,3.684,0,0,0,1.467.291,3.774,3.774,0,0,0,1.579-.327,4.386,4.386,0,0,0,1.272-.869l.726.8a4.357,4.357,0,0,1-1.564,1.109,5.368,5.368,0,0,1-3.971.005,4.641,4.641,0,0,1-2.576-2.612,5.53,5.53,0,0,1,0-3.941,4.63,4.63,0,0,1,2.576-2.617A5.105,5.105,0,0,1,434.043,289.1Zm7.053,4.212h1.564l4.048-4.058h1.472l-4.579,4.539,4.661,5.08H446.78l-4.119-4.508H441.1v4.508h-1.165v-14.72H441.1Z" transform="translate(-292.126 -267.432)"/>
    </g>
    <g id="logo-_-payment-_-visa" data-name="logo-/-payment-/-visa" transform="translate(1460.09 25.832)">
      <g id="Visa_Inc._logo" transform="translate(0 10)">
        <path id="polygon9" d="M16.508,23.71H11.264L14.544.21h5.244Z" transform="translate(11.547 0.216)" fill="#0f2499"/>
        <path id="path11" d="M31.206,1a11.392,11.392,0,0,0-4.7-1c-5.179,0-8.827,3.2-8.849,7.775-.043,3.375,2.611,5.25,4.6,6.375,2.029,1.15,2.719,1.9,2.719,2.926-.021,1.574-1.64,2.3-3.15,2.3a9.268,9.268,0,0,1-4.921-1.25l-.691-.375-.734,5.275a14.069,14.069,0,0,0,5.849,1.251c5.5,0,9.086-3.15,9.128-8.026.021-2.675-1.381-4.725-4.4-6.4-1.834-1.075-2.958-1.8-2.958-2.9.022-1,.95-2.025,3.021-2.025a7.886,7.886,0,0,1,3.907.9l.474.25L31.206,1Z" transform="translate(15.863 0)" fill="#0f2499"/>
        <path id="path13" d="M30.791,15.385c.432-1.35,2.094-6.575,2.094-6.575-.022.05.431-1.375.69-2.25l.367,2.025s.993,5.625,1.209,6.8ZM37.265.21H33.208a2.581,2.581,0,0,0-2.741,1.95l-7.79,21.55h5.5s.906-2.9,1.1-3.525h6.734c.151.825.626,3.525.626,3.525H41.5L37.265.21Z" transform="translate(23.248 0.216)" fill="#0f2499"/>
        <path id="path15" d="M15.656.21,10.519,16.235l-.561-3.25a17.548,17.548,0,0,0-7.251-9.85l4.7,20.551h5.546L21.2.21Z" transform="translate(2.775 0.216)" fill="#0f2499"/>
        <path id="path17" d="M8.525.21H.086L0,.685a18.544,18.544,0,0,1,12.733,12.3L10.9,2.186A2.226,2.226,0,0,0,8.525.21Z" transform="translate(0 0.216)" fill="#0f2499"/>
      </g>
    </g>
  </g>
</svg>
