<svg xmlns="http://www.w3.org/2000/svg" width="218.518" height="80" viewBox="0 0 218.518 80">
  <path id="_2" data-name="2" d="M97.333,55.574V79.648h11.852V60.574a6.222,6.222,0,0,1,.926-2.593,3.362,3.362,0,0,1,3.519-1.667c2.037.185,3.333,1.3,3.7,3.7V79.463h11.852V68.352c0-9.444,0-11.3-.185-12.222-.37-3.333-1.481-5.926-3.519-7.778a10.6,10.6,0,0,0-6.111-2.963,16.082,16.082,0,0,0-4.259.185,9.672,9.672,0,0,0-5.37,2.963l-.926.741V31.5H96.963V55.574Zm125.926-23.7c-.37.741-12.407,29.815-12.407,29.815h14.074l6.3-15c3.518-8.333,6.3-15.185,6.3-15.185H223.444ZM71.407,45.574a16,16,0,0,0-6.667,2.407A17.009,17.009,0,0,0,57.333,60.2,20.8,20.8,0,0,0,57.7,67.8c1.481,5.741,5.37,10.185,10.37,11.852a13.155,13.155,0,0,0,4.815.741,9.174,9.174,0,0,0,2.778-.185,10.763,10.763,0,0,0,5.556-2.963l.741-.741v2.963H93.444V46.13H81.963v2.963l-.556-.556a10.074,10.074,0,0,0-5.556-2.963,9.115,9.115,0,0,0-2.593-.185A9.5,9.5,0,0,1,71.407,45.574Zm75.556,0a19.014,19.014,0,0,0-8.889,3.7,17.829,17.829,0,0,0-6.111,16.3c.926,7.037,5.926,12.407,12.963,14.259a19.109,19.109,0,0,0,4.815.556,17.276,17.276,0,0,0,8.333-1.852,16.553,16.553,0,0,0,9.259-12.963,24.252,24.252,0,0,0,0-5.185,16.908,16.908,0,0,0-3.148-7.778,26.816,26.816,0,0,0-3.148-3.333,17.294,17.294,0,0,0-8.889-3.7A24.268,24.268,0,0,0,146.963,45.574Zm37.778,0a16.7,16.7,0,0,0-8.7,3.7,17.744,17.744,0,0,0-3.148,3.333,19.181,19.181,0,0,0-3.148,7.778,24.268,24.268,0,0,0,0,5.185A17.309,17.309,0,0,0,183.63,80.2a13.231,13.231,0,0,0,3.889.37,16.577,16.577,0,0,0,8.519-2.037,17.424,17.424,0,0,0,8.889-19.259,17.118,17.118,0,0,0-15-13.7A24.268,24.268,0,0,0,184.741,45.574ZM19,46.315s3.148,7.593,7.037,16.852,7.037,16.852,7.037,16.852S31.963,82.8,30.481,86.13s-2.593,5.926-2.593,6.111,2.778,0,6.3,0h6.3l9.444-22.778C55.111,56.87,59.37,46.685,59.37,46.5a46.119,46.119,0,0,0-6.3,0h-6.3l-3.889,9.63c-1.667,5.185-3.333,9.63-3.333,9.63s-1.667-4.444-3.889-9.63l-3.7-9.63H25.481C21.963,46.315,19,46.315,19,46.315Zm58.148,10a6.917,6.917,0,0,1,5,4.815,11.211,11.211,0,0,1,0,3.519,6.392,6.392,0,0,1-4.815,4.815,11.212,11.212,0,0,1-3.519,0,7.012,7.012,0,0,1-4.63-3.889,7.28,7.28,0,0,1,.556-6.481A7.064,7.064,0,0,1,77.148,56.315Zm73.889.185a6.3,6.3,0,0,1,5.185,5,10.069,10.069,0,0,1,0,3.333,6.753,6.753,0,0,1-4.63,4.815,11.212,11.212,0,0,1-3.519,0,7.305,7.305,0,0,1-4.259-3.519,5.328,5.328,0,0,1-.556-2.963,5.915,5.915,0,0,1,.556-2.593,7.432,7.432,0,0,1,2.407-2.963A5.341,5.341,0,0,1,151.037,56.5Zm37.593,0a6.149,6.149,0,0,1,4.815,3.889A5.915,5.915,0,0,1,194,62.981a7.676,7.676,0,0,1-.556,2.963,6.8,6.8,0,0,1-4.259,3.519,11.212,11.212,0,0,1-3.519,0,6.449,6.449,0,0,1-4.63-4.815,11.211,11.211,0,0,1,0-3.519,6.514,6.514,0,0,1,6.3-5C187.7,56.315,188.259,56.315,188.63,56.5Zm25.185,8.148a7.869,7.869,0,0,0-6.852,6.3,11.212,11.212,0,0,0,0,3.519,7.81,7.81,0,0,0,5.926,5.741c.37,0,1.111.185,1.667.185a7.538,7.538,0,0,0,5.556-2.222,7.133,7.133,0,0,0,2.222-5.556,7.311,7.311,0,0,0-3.519-6.481A6.627,6.627,0,0,0,213.815,64.648ZM116.222,82.8A3.778,3.778,0,0,0,114,88.352a4.215,4.215,0,0,0,1.667,1.481,3.655,3.655,0,0,0,1.667.185A4.111,4.111,0,0,0,119,89.833a4.463,4.463,0,0,0,1.852-1.852,3.786,3.786,0,0,0-1.852-5,2,2,0,0,0-1.481-.37A2.38,2.38,0,0,0,116.222,82.8Zm-10,.185c-3.148.556-5.185,2.593-6.111,5.926a5.709,5.709,0,0,0-.185,1.852v1.3H97.333v5.556h2.593v13.333h7.037V97.611h4.815V92.056h-4.815V91.5c.185-1.3.741-2.222,1.852-2.407a4.167,4.167,0,0,1,2.593.185,1.433,1.433,0,0,0,.556.185V83.537l-.556-.185a6.785,6.785,0,0,0-2.963-.37A8.786,8.786,0,0,0,106.222,82.981Zm28.148,8.7a6.05,6.05,0,0,0-3.333,2.037l-.37.556V92.056H123.63v18.889h7.037V100.019a4.342,4.342,0,0,1,.926-1.852,2.55,2.55,0,0,1,3.333.37c.556.741.556.741.556,6.667v5.556h7.037v-6.3c0-6.667,0-7.407-.37-8.7a5.37,5.37,0,0,0-1.667-2.778,4.586,4.586,0,0,0-2.593-1.481A21.266,21.266,0,0,0,134.37,91.685Zm17.593-.185a9.182,9.182,0,0,0-3.7,1.481,10.183,10.183,0,0,0-3.889,6.481,16.4,16.4,0,0,0,0,4.259,10.75,10.75,0,0,0,1.852,4.444,8.08,8.08,0,0,0,5,3.148,9.06,9.06,0,0,0,3.889-.185,8.058,8.058,0,0,0,2.778-1.481l.741-.741v1.852h7.037V91.87H158.63v1.852l-.556-.185a6.439,6.439,0,0,0-3.7-1.852A10.559,10.559,0,0,0,151.963,91.5Zm26.852.185a5.69,5.69,0,0,0-3.333,2.037l-.37.37V91.87h-7.037v18.889h7.037v-5.37c0-5.741,0-5.741.37-6.667a2.037,2.037,0,0,1,1.852-1.111,2.585,2.585,0,0,1,1.667.556c.741.741.741.556.741,6.852v5.556h7.037v-6.852c0-6.852,0-6.852-.185-7.593a17.484,17.484,0,0,1-.556-1.667,4.457,4.457,0,0,0-1.111-1.481,7.087,7.087,0,0,0-2.037-1.481A15.054,15.054,0,0,0,178.815,91.685Zm18.333,0a9.521,9.521,0,0,0-7.037,4.63c-.37.741-.741,1.667-1.111,2.593a9.84,9.84,0,0,0-.185,2.593,7.064,7.064,0,0,0,.556,3.519,9.644,9.644,0,0,0,7.222,6.3A7.691,7.691,0,0,0,199,111.5a8.108,8.108,0,0,0,3.889-.741l.741-.37v-6.3l-.556.37a4.252,4.252,0,0,1-2.593.741,4.72,4.72,0,0,1-2.407-.37,3.634,3.634,0,0,1-1.667-1.667,3.184,3.184,0,0,1-.185-1.481,3.61,3.61,0,0,1,.185-1.481c.556-1.481,1.852-2.222,3.7-2.407a6.369,6.369,0,0,1,3.7.926v-6.3l-.556-.185A11.708,11.708,0,0,0,197.148,91.685Zm15.926,0a10.258,10.258,0,0,0-6.667,15.741,8.948,8.948,0,0,0,5.926,3.889,26.01,26.01,0,0,0,5.37,0,9.443,9.443,0,0,0,4.815-2.593A20.31,20.31,0,0,0,224,106.87s-1.3-.556-2.963-1.111l-2.963-1.111-.37.37a3.006,3.006,0,0,1-1.667.926,3.467,3.467,0,0,1-4.444-2.407v-.37h12.963V101.5a6.39,6.39,0,0,0-.185-2.222,9.87,9.87,0,0,0-2.593-5.185,8.539,8.539,0,0,0-4.815-2.407A13.664,13.664,0,0,0,213.074,91.685ZM113.815,101.5v9.444h7.037V92.056h-7.037Zm102.037-4.63a4.641,4.641,0,0,1,1.3.741,1.874,1.874,0,0,1,.741,1.3v.37h-3.148c-3.519,0-3.333,0-2.963-.741A3.534,3.534,0,0,1,215.852,96.87Zm-59.815.926a3.778,3.778,0,0,1,.185,7.222,6.119,6.119,0,0,1-2.593,0,3.5,3.5,0,0,1-2.407-2.407,3.152,3.152,0,0,1-.185-1.3,2,2,0,0,1,.37-1.481C152.148,98.167,154,97.426,156.037,97.8Z" transform="translate(-19 -31.5)" fill-rule="evenodd"/>
</svg>
