<svg xmlns="http://www.w3.org/2000/svg" width="48" height="48" viewBox="0 0 48 48">
  <g id="Group_76653" data-name="Group 76653" transform="translate(-34 -34)">
    <path id="Path_34129" data-name="Path 34129" d="M58,82a1.523,1.523,0,0,1-.946-.332L48.405,74.75a1.514,1.514,0,0,1,.946-2.7h2.178l1.372-8.24-.168-.062a15.319,15.319,0,0,1-4.2-2.344l-.174-.137L44.43,66.506l.8.8a1.513,1.513,0,0,1-1.07,2.584H35.514A1.515,1.515,0,0,1,34,68.378V59.73a1.512,1.512,0,0,1,2.584-1.07l.8.8,5.869-4.4a.605.605,0,0,1,.139-.067c.04-.015.079-.031.117-.05l.177-.086-.069-.185a15.351,15.351,0,1,1,28.761,0l-.069.186.179.085c.038.018.076.033.114.048a.61.61,0,0,1,.141.068l5.869,4.4.8-.8A1.513,1.513,0,0,1,82,59.73v8.649a1.515,1.515,0,0,1-1.514,1.514H71.838a1.513,1.513,0,0,1-1.07-2.584l.8-.8-3.926-5.234-.174.137a15.268,15.268,0,0,1-4.2,2.343l-.168.062,1.372,8.24h2.178a1.514,1.514,0,0,1,.946,2.7l-8.649,6.919A1.523,1.523,0,0,1,58,82Zm-3.7-8.183a1.515,1.515,0,0,1-.585.961l-.222.168,4.5,3.6,4.5-3.6-.222-.168a1.513,1.513,0,0,1-.585-.962L60.151,64.54l-.206.026a13.9,13.9,0,0,1-3.888,0l-.206-.026Zm16.553-16.1A15.559,15.559,0,0,1,69.926,59l-.106.131,4.958,6.611a1.5,1.5,0,0,1,.3.908v.216h3.892V62.973h-.216a1.5,1.5,0,0,1-.908-.3l-6.864-5.149ZM37.027,66.865h3.892v-.216a1.505,1.505,0,0,1,.3-.908l4.96-6.611L46.076,59a15.771,15.771,0,0,1-.932-1.285l-.126-.193-6.866,5.15a1.505,1.505,0,0,1-.908.3h-.216ZM58,37.027A12.324,12.324,0,1,0,70.324,49.351,12.338,12.338,0,0,0,58,37.027Z" fill="#00aa5d"/>
    <g id="Group_76656" data-name="Group 76656" transform="translate(51.759 43.206)">
      <g id="Group_76655" data-name="Group 76655" transform="translate(0 0)">
        <g id="Group_76654" data-name="Group 76654">
          <path id="Path_34130" data-name="Path 34130" d="M189.87,120.833a1.869,1.869,0,0,1-1.321-3.19l8.2-8.2a1.869,1.869,0,0,1,2.643,2.643l-8.2,8.2a1.856,1.856,0,0,1-1.321.547Z" transform="translate(-188.001 -108.891)" fill="#00aa5d"/>
          <circle id="Ellipse_5843" data-name="Ellipse 5843" cx="1.869" cy="1.869" r="1.869" transform="translate(8.204 8.204)" fill="#00aa5d"/>
          <path id="Path_34131" data-name="Path 34131" d="M189.869,112.628a1.869,1.869,0,1,1,1.869-1.869A1.871,1.871,0,0,1,189.869,112.628Z" transform="translate(-188 -108.89)" fill="#00aa5d"/>
        </g>
      </g>
    </g>
  </g>
</svg>
