<svg xmlns="http://www.w3.org/2000/svg" width="48" height="51.2" viewBox="0 0 48 51.2">
  <g id="Group_76836" data-name="Group 76836" transform="translate(-16 0)">
    <path id="Path_34124" data-name="Path 34124" d="M22.015,308H17.5a1.5,1.5,0,0,0-1.5,1.5v12a1.5,1.5,0,0,0,1.5,1.5h6a1.5,1.5,0,0,0,1.5-1.5v-1a30.941,30.941,0,0,1,6.97,2.594c2.834,1.34,5.51,2.6,9.113,2.6,7.906,0,10.52-2.492,17.506-9.151,1.165-1.11,2.485-2.369,3.974-3.753a4.5,4.5,0,0,0-6-6.7l-.042.038-4.9,4.563A4.506,4.506,0,0,0,47.5,308H40.6a10.594,10.594,0,0,0-7.424-3,11.508,11.508,0,0,0-5.632,1.543A10.945,10.945,0,0,1,22.015,308ZM22,320H19v-9h3Zm11.178-12a7.793,7.793,0,0,1,5.761,2.561A1.5,1.5,0,0,0,40,311h7.5a1.5,1.5,0,1,1,0,3h-9a1.5,1.5,0,1,0,0,3h9a4.486,4.486,0,0,0,3.236-1.377l7.8-7.274A1.5,1.5,0,0,1,61,309.5a1.486,1.486,0,0,1-.479,1.1c-1.5,1.4-2.83,2.662-4,3.778-6.707,6.393-8.731,8.322-15.436,8.322-2.929,0-5.2-1.074-7.831-2.317A32.541,32.541,0,0,0,25,317.441V310.7a15.61,15.61,0,0,0,3.88-1.472,8.667,8.667,0,0,1,4.3-1.23Z" transform="translate(0 -274.5)" fill="#00aa5d"/>
    <path id="Path_34125" data-name="Path 34125" d="M257.44,98.561a1.5,1.5,0,0,0,2.121,0l6-6a1.5,1.5,0,0,0-2.121-2.121l-6,6A1.5,1.5,0,0,0,257.44,98.561Z" transform="translate(-216.9 -81.001)" fill="#00aa5d"/>
    <circle id="Ellipse_5839" data-name="Ellipse 5839" cx="1.412" cy="1.412" r="1.412" transform="translate(46.344 14.954)" fill="#00aa5d"/>
    <circle id="Ellipse_5840" data-name="Ellipse 5840" cx="1.765" cy="1.765" r="1.765" transform="translate(39.991 8.602)" fill="#00aa5d"/>
    <path id="Path_34126" data-name="Path 34126" d="M167.44,14.56l1.923,1.924-.7,2.628a1.5,1.5,0,0,0,1.061,1.837l2.628.7.7,2.628a1.5,1.5,0,0,0,1.837,1.061l2.628-.7,1.923,1.924a1.5,1.5,0,0,0,2.121,0l1.924-1.924,2.628.7a1.5,1.5,0,0,0,1.837-1.061l.7-2.628,2.628-.7a1.5,1.5,0,0,0,1.061-1.837l-.7-2.628,1.923-1.924a1.5,1.5,0,0,0,0-2.121l-1.923-1.924.7-2.628a1.5,1.5,0,0,0-1.061-1.837l-2.628-.7-.7-2.628a1.5,1.5,0,0,0-1.837-1.061l-2.628.7L181.561.439a1.5,1.5,0,0,0-2.121,0l-1.923,1.924-2.628-.7a1.5,1.5,0,0,0-1.837,1.061l-.7,2.628-2.628.7a1.5,1.5,0,0,0-1.061,1.837l.7,2.628-1.923,1.924a1.5,1.5,0,0,0,0,2.121Zm5.045-3.985-.54-2.015,2.015-.54a1.5,1.5,0,0,0,1.061-1.061l.54-2.015,2.015.54a1.5,1.5,0,0,0,1.449-.388L180.5,3.621,181.976,5.1a1.5,1.5,0,0,0,1.449.388l2.015-.54.54,2.015A1.5,1.5,0,0,0,187.04,8.02l2.015.54-.54,2.015a1.5,1.5,0,0,0,.388,1.449l1.475,1.475L188.9,14.975a1.5,1.5,0,0,0-.388,1.449l.54,2.015-2.015.54a1.5,1.5,0,0,0-1.061,1.061l-.54,2.015-2.015-.54a1.5,1.5,0,0,0-1.449.388L180.5,23.378,179.025,21.9a1.5,1.5,0,0,0-1.449-.388l-2.015.54-.54-2.015a1.5,1.5,0,0,0-1.061-1.061l-2.015-.54.54-2.015a1.5,1.5,0,0,0-.388-1.449L170.622,13.5l1.475-1.475a1.5,1.5,0,0,0,.388-1.449Z" transform="translate(-135.901 0)" fill="#00aa5d"/>
  </g>
</svg>
