<svg id="Group_76657" data-name="Group 76657" xmlns="http://www.w3.org/2000/svg" width="48" height="48" viewBox="0 0 48 48">
  <circle id="Ellipse_5844" data-name="Ellipse 5844" cx="1.342" cy="1.342" r="1.342" transform="translate(8.408 14.217)" fill="#00aa5d"/>
  <circle id="Ellipse_5845" data-name="Ellipse 5845" cx="1.342" cy="1.342" r="1.342" transform="translate(31.224 5.493)" fill="#00aa5d"/>
  <path id="Path_34134" data-name="Path 34134" d="M4.219,196.875H8.437v7.031a1.407,1.407,0,0,0,1.808,1.348l12.348-3.68v6.739H18.375a1.406,1.406,0,1,0,0,2.812h11.25a1.406,1.406,0,1,0,0-2.812H25.406v-7.577l13.152-3.919a1.406,1.406,0,0,0,1-1.348v-7.031h4.219A4.224,4.224,0,0,0,48,184.219v-2.812A1.406,1.406,0,0,0,46.594,180H29.719a1.406,1.406,0,0,0-1.406,1.406v2.813a4.224,4.224,0,0,0,4.219,4.219H36.75v5.983l-25.5,7.6v-5.145h4.219a4.224,4.224,0,0,0,4.219-4.219v-2.812a1.406,1.406,0,0,0-1.406-1.406H1.406A1.406,1.406,0,0,0,0,189.844v2.813A4.224,4.224,0,0,0,4.219,196.875Zm26.906-12.656v-1.406H45.187v1.406a1.408,1.408,0,0,1-1.406,1.406H32.531A1.408,1.408,0,0,1,31.125,184.219ZM2.812,191.25H16.875v1.406a1.408,1.408,0,0,1-1.406,1.406H4.219a1.408,1.408,0,0,1-1.406-1.406Z" transform="translate(0 -163.125)" fill="#00aa5d"/>
  <path id="Path_34135" data-name="Path 34135" d="M30,97.031A7.031,7.031,0,1,0,37.031,90,7.039,7.039,0,0,0,30,97.031Zm11.25,0a4.219,4.219,0,1,1-4.219-4.219A4.224,4.224,0,0,1,41.25,97.031Z" transform="translate(-27.188 -81.563)" fill="#00aa5d"/>
  <path id="Path_34136" data-name="Path 34136" d="M279.031,14.062a6.994,6.994,0,0,0,4.218-1.409,7.031,7.031,0,1,0,0-11.244,7.03,7.03,0,1,0-4.218,12.653Zm12.656-7.031a4.217,4.217,0,0,1-6.565,3.5,7.005,7.005,0,0,0,0-7.01,4.217,4.217,0,0,1,6.565,3.5ZM279.031,2.812a4.219,4.219,0,1,1-4.219,4.219A4.224,4.224,0,0,1,279.031,2.812Z" transform="translate(-246.5)" fill="#00aa5d"/>
</svg>
