<svg xmlns="http://www.w3.org/2000/svg" width="48" height="48.973" viewBox="0 0 48 48.973">
  <g id="Group_76658" data-name="Group 76658" transform="translate(-27.327 -22.692)">
    <path id="Path_34137" data-name="Path 34137" d="M40.92,71.665a1.752,1.752,0,0,1,0-3.5h2.535V63.808H33.212a5.892,5.892,0,0,1-5.885-5.885V28.577a5.892,5.892,0,0,1,5.885-5.885H69.442a5.892,5.892,0,0,1,5.885,5.885V57.922a5.892,5.892,0,0,1-5.885,5.885H59.2v4.353h2.535a1.752,1.752,0,0,1,0,3.5Zm6.039-3.5H55.7V63.808H46.959ZM30.831,57.922A2.384,2.384,0,0,0,33.212,60.3H69.442a2.384,2.384,0,0,0,2.382-2.382V54.937H30.831ZM33.212,26.2a2.384,2.384,0,0,0-2.382,2.382V51.433H71.823V28.577A2.384,2.384,0,0,0,69.442,26.2Z" transform="translate(0 0)" fill="#00aa5d"/>
    <path id="Path_34138" data-name="Path 34138" d="M160.367,179.353a1.754,1.754,0,0,1-1.752-1.752v-4.917a1.752,1.752,0,1,1,3.5,0V177.6A1.754,1.754,0,0,1,160.367,179.353Z" transform="translate(-117.509 -132.682)" fill="#00aa5d"/>
    <path id="Path_34139" data-name="Path 34139" d="M241.06,149.61a1.754,1.754,0,0,1-1.752-1.752v-8.4a1.752,1.752,0,1,1,3.5,0v8.4A1.754,1.754,0,0,1,241.06,149.61Z" transform="translate(-189.733 -102.939)" fill="#00aa5d"/>
    <path id="Path_34140" data-name="Path 34140" d="M321.752,117.182A1.754,1.754,0,0,1,320,115.43V103.223a1.752,1.752,0,0,1,3.5,0V115.43A1.754,1.754,0,0,1,321.752,117.182Z" transform="translate(-261.956 -70.511)" fill="#00aa5d"/>
  </g>
</svg>
