<svg xmlns="http://www.w3.org/2000/svg" xmlns:xlink="http://www.w3.org/1999/xlink" width="42.889" height="48" viewBox="0 0 42.889 48">
  <defs>
    <linearGradient id="linear-gradient" x1="0.5" y1="0.949" x2="0.5" y2="0.036" gradientUnits="objectBoundingBox">
      <stop offset="0" stop-color="#00513a"/>
      <stop offset="1" stop-color="#00aa5d"/>
    </linearGradient>
    <linearGradient id="linear-gradient-2" x1="0.252" y1="0.04" x2="0.647" y2="1.515" gradientUnits="objectBoundingBox">
      <stop offset="0"/>
      <stop offset="0.217" stop-color="#030303"/>
      <stop offset="0.392" stop-color="#0d0d0d"/>
      <stop offset="0.553" stop-color="#1e1e1e"/>
      <stop offset="0.705" stop-color="#363636"/>
      <stop offset="0.851" stop-color="#484848"/>
      <stop offset="1" stop-color="#585858"/>
    </linearGradient>
  </defs>
  <g id="Group_76829" data-name="Group 76829" transform="translate(-1000 -2891.062)">
    <g id="Group_76628" data-name="Group 76628" transform="translate(1000 2891.062)">
      <g id="Group_76627" data-name="Group 76627" transform="translate(0 0)">
        <g id="Group_76626" data-name="Group 76626">
          <path id="Path_34107" data-name="Path 34107" d="M61.675,36.025,41.538,21.767A9.726,9.726,0,0,0,26.193,29.7V58.22a9.726,9.726,0,0,0,15.345,7.937L61.675,51.9A9.726,9.726,0,0,0,61.675,36.025Z" transform="translate(-26.193 -19.962)" fill="#e8e7e7"/>
          <g id="Group_76624" data-name="Group 76624" transform="translate(5.393 6.659)" opacity="0.2" style="mix-blend-mode: multiply;isolation: isolate">
            <path id="Path_34108" data-name="Path 34108" d="M60.628,44.341,43.246,32.033a5.1,5.1,0,0,0-8.042,4.16V60.807a5.1,5.1,0,0,0,8.042,4.16L60.628,52.66A5.1,5.1,0,0,0,60.628,44.341Z" transform="translate(-35.204 -31.087)"/>
          </g>
          <path id="Path_34109" data-name="Path 34109" d="M60.748,44.221,43.366,31.914a5.1,5.1,0,0,0-8.042,4.16V60.688a5.1,5.1,0,0,0,8.042,4.16L60.748,52.541A5.1,5.1,0,0,0,60.748,44.221Z" transform="translate(-29.859 -24.381)" opacity="0.9" fill="url(#linear-gradient)"/>
          <path id="Path_34110" data-name="Path 34110" d="M62.892,48.508a5.059,5.059,0,0,0-2.145-4.287L43.366,31.914a5.1,5.1,0,0,0-8.042,4.16V48.508Z" transform="translate(-29.859 -24.381)" fill="url(#linear-gradient-2)" style="mix-blend-mode: color-dodge;isolation: isolate"/>
          <path id="Path_34111" data-name="Path 34111" d="M40.028,66a5.718,5.718,0,0,1-2.634-.653,5.61,5.61,0,0,1-3.083-5.065V35.664a5.7,5.7,0,0,1,9-4.654L60.691,43.315a5.7,5.7,0,0,1,0,9.309L43.31,64.931A5.654,5.654,0,0,1,40.028,66Zm0-34.835a4.508,4.508,0,0,0-2.075.514,4.417,4.417,0,0,0-2.428,3.989V60.277a4.49,4.49,0,0,0,7.086,3.665L59.991,51.636a4.491,4.491,0,0,0,0-7.331L42.609,32A4.454,4.454,0,0,0,40.025,31.16Z" transform="translate(-29.452 -23.97)" fill="#fff"/>
          <path id="Path_34112" data-name="Path 34112" d="M92.19,57.371a3.463,3.463,0,1,1-3.464-3.464A3.464,3.464,0,0,1,92.19,57.371Z" transform="translate(-49.907 -33.59)" opacity="0.9" fill="url(#linear-gradient)"/>
          <path id="Path_34113" data-name="Path 34113" d="M88.32,61.034a4.069,4.069,0,1,1,4.07-4.069A4.074,4.074,0,0,1,88.32,61.034Zm0-6.927a2.857,2.857,0,1,0,2.858,2.857A2.861,2.861,0,0,0,88.32,54.107Z" transform="translate(-49.5 -33.183)" fill="#fff"/>
        </g>
      </g>
    </g>
  </g>
</svg>
