<svg xmlns="http://www.w3.org/2000/svg" width="12" height="12.001" viewBox="0 0 12 12.001">
  <g id="Cross" transform="translate(-234.735 -15.51)">
    <path id="Path_28039" data-name="Path 28039" d="M7.087,6.025l4.718-4.718A.751.751,0,0,0,10.743.245L6.025,4.963,1.307.245A.751.751,0,0,0,.245,1.307L4.963,6.025.245,10.743a.751.751,0,0,0,.53,1.282.744.744,0,0,0,.53-.22L6.025,7.087l4.718,4.718a.748.748,0,0,0,.53.22.74.74,0,0,0,.53-.22.751.751,0,0,0,0-1.062Z" transform="translate(234.71 15.485)"/>
  </g>
</svg>
