<svg xmlns="http://www.w3.org/2000/svg" xmlns:xlink="http://www.w3.org/1999/xlink" width="19.607" height="17.52" viewBox="0 0 19.607 17.52">
  <defs>
    <linearGradient id="linear-gradient" x1="0.5" y1="0.949" x2="0.5" y2="0.036" gradientUnits="objectBoundingBox">
      <stop offset="0" stop-color="#00513a"/>
      <stop offset="1" stop-color="#00aa5d"/>
    </linearGradient>
    <linearGradient id="linear-gradient-2" x1="0.252" y1="0.04" x2="0.647" y2="1.515" gradientUnits="objectBoundingBox">
      <stop offset="0"/>
      <stop offset="0.217" stop-color="#030303"/>
      <stop offset="0.392" stop-color="#0d0d0d"/>
      <stop offset="0.553" stop-color="#1e1e1e"/>
      <stop offset="0.705" stop-color="#363636"/>
      <stop offset="0.851" stop-color="#484848"/>
      <stop offset="1" stop-color="#585858"/>
    </linearGradient>
  </defs>
  <g id="Group_76858" data-name="Group 76858" transform="translate(-2891.062 1017.52) rotate(-90)">
    <g id="Group_76628" data-name="Group 76628" transform="translate(1000 2891.062)">
      <g id="Group_76627" data-name="Group 76627" transform="translate(0 0)">
        <g id="Group_76626" data-name="Group 76626">
          <path id="Path_34107" data-name="Path 34107" d="M40.687,26.524,32.461,20.7a3.973,3.973,0,0,0-6.268,3.242V35.59a3.973,3.973,0,0,0,6.268,3.242l8.226-5.824A3.973,3.973,0,0,0,40.687,26.524Z" transform="translate(-26.193 -19.962)" fill="#e8e7e7"/>
          <g id="Group_76624" data-name="Group 76624" transform="translate(2.203 2.72)" opacity="0.2" style="mix-blend-mode: multiply;isolation: isolate">
            <path id="Path_34108" data-name="Path 34108" d="M45.589,36.5l-7.1-5.027a2.082,2.082,0,0,0-3.285,1.7V43.228a2.082,2.082,0,0,0,3.285,1.7l7.1-5.027A2.082,2.082,0,0,0,45.589,36.5Z" transform="translate(-35.204 -31.087)"/>
          </g>
          <path id="Path_34109" data-name="Path 34109" d="M45.709,36.382l-7.1-5.027a2.082,2.082,0,0,0-3.285,1.7V43.108a2.082,2.082,0,0,0,3.285,1.7l7.1-5.027A2.082,2.082,0,0,0,45.709,36.382Z" transform="translate(-33.092 -28.277)" opacity="0.9" fill="url(#linear-gradient)"/>
          <path id="Path_34110" data-name="Path 34110" d="M46.585,38.133a2.067,2.067,0,0,0-.876-1.751l-7.1-5.027a2.082,2.082,0,0,0-3.285,1.7v5.079Z" transform="translate(-33.092 -28.277)" fill="url(#linear-gradient-2)" style="mix-blend-mode: color-dodge;isolation: isolate"/>
          <path id="Path_34111" data-name="Path 34111" d="M36.646,44.671A2.336,2.336,0,0,1,35.57,44.4a2.291,2.291,0,0,1-1.259-2.069V32.281a2.33,2.33,0,0,1,3.676-1.9l7.1,5.027a2.329,2.329,0,0,1,0,3.8l-7.1,5.027A2.31,2.31,0,0,1,36.646,44.671Zm0-14.23a1.842,1.842,0,0,0-.847.21,1.8,1.8,0,0,0-.992,1.63V42.335a1.834,1.834,0,0,0,2.895,1.5l7.1-5.027a1.834,1.834,0,0,0,0-2.995l-7.1-5.027A1.819,1.819,0,0,0,36.645,30.441Z" transform="translate(-32.326 -27.504)" fill="#fff"/>
          <path id="Path_34112" data-name="Path 34112" d="M88.093,55.322a1.415,1.415,0,1,1-1.415-1.415A1.415,1.415,0,0,1,88.093,55.322Z" transform="translate(-70.821 -45.608)" opacity="0.9" fill="url(#linear-gradient)"/>
          <path id="Path_34113" data-name="Path 34113" d="M85.912,56.22a1.662,1.662,0,1,1,1.663-1.662A1.664,1.664,0,0,1,85.912,56.22Zm0-2.83a1.167,1.167,0,1,0,1.167,1.167A1.168,1.168,0,0,0,85.912,53.39Z" transform="translate(-70.055 -44.843)" fill="#fff"/>
        </g>
      </g>
    </g>
  </g>
</svg>
